<?xml version="1.0" encoding="utf-8"?>
<!-- Generator: Adobe Illustrator 24.1.2, SVG Export Plug-In . SVG Version: 6.00 Build 0)  -->
<svg version="1.1" id="Слой_1" xmlns="http://www.w3.org/2000/svg" xmlns:xlink="http://www.w3.org/1999/xlink" x="0px" y="0px"
	 viewBox="0 0 207 143.5" style="enable-background:new 0 0 207 143.5;" xml:space="preserve">
<style type="text/css">
	.st0{fill:#FFFFFF;}
</style>
<g>
	<path class="st0" d="M0,143.5h35.8v-11.7L19.9,124H0V143.5L0,143.5z M8,127.9h9.9l9.9,4.7v7H8V127.9L8,127.9z M39.8,143.5h35.8
		v-3.9H47.8v-3.9h27.9v-3.9H47.8v-3.9h27.9V124H39.8V143.5L39.8,143.5z M115.4,143.5v-11.7H87.6v-3.9h27.9V124H79.6v11.7h27.9v3.9
		H79.6v3.9H115.4L115.4,143.5z M119.4,124v19.5h8V124H119.4L119.4,124z M167.2,131.8h-8v7.8h-19.9v-11.7h27.9V124h-35.8v19.5h35.8
		V131.8L167.2,131.8z M179.1,143.5v-11.7l19.9,11.7h8V124h-8v11.7L179.1,124h-8v19.5H179.1L179.1,143.5z"/>
	<path class="st0" d="M0,0v115h207V0H0L0,0z M161,23v69H46V23H161L161,23z"/>
</g>
</svg>
