<?xml version="1.0" encoding="utf-8"?>
<!-- Generator: Adobe Illustrator 24.1.2, SVG Export Plug-In . SVG Version: 6.00 Build 0)  -->
<svg version="1.1" id="Слой_1" xmlns="http://www.w3.org/2000/svg" xmlns:xlink="http://www.w3.org/1999/xlink" x="0px" y="0px"
	 viewBox="0 0 215 125" style="enable-background:new 0 0 215 125;" xml:space="preserve">
<style type="text/css">
	.st0{fill:#FFFFFF;}
</style>
<g>
	<path class="st0" d="M215,106.6H0v-89h215V106.6L215,106.6z M3,103.6H212V20.6H3V103.6L3,103.6z"/>
	<path class="st0" d="M197.1,29.1c-3.3,0-5.9,2.5-5.9,5.6c0,3.1,2.7,5.6,5.9,5.6c3.3,0,5.9-2.5,5.9-5.6
		C203.1,31.6,200.4,29.1,197.1,29.1z M196.3,33.7H195v2.6H194v-2.6h-1.4v-0.5h3.6V33.7z M200.7,36.3v-2.5l-0.9,2.5h-0.9l-0.9-2.5
		l0,2.5h-0.9v-3.2h1.4l0.8,2.2l0.8-2.2h1.4v3.2H200.7z"/>
	<polygon class="st0" points="203.2,88.4 11.8,88.4 11.8,87.4 203.2,87.4 203.2,88.4 	"/>
	<path class="st0" d="M203.2,83.9l-30.1-54.7l-30.3,54.7L203.2,83.9L203.2,83.9z M181.4,71.2l-16.8,0L173,56L181.4,71.2L181.4,71.2z
		"/>
	<path class="st0" d="M16.9,94v-0.8h-4.1v-1.5h4.4v-0.8h-5.4v5.2h1V94H16.9L16.9,94z M21.4,96.2v-2.3h2.7l1.2,2.3h1.1l-1.2-2.4
		c0.9-0.1,1.3-0.5,1.3-1.1v-0.6c0-0.8-0.6-1.1-1.9-1.1h-4.1v5.2H21.4L21.4,96.2z M24.6,91.7c0.6,0,0.9,0.1,0.9,0.4v0.6
		c0,0.2-0.3,0.4-0.9,0.4h-3.1v-1.3H24.6L24.6,91.7z M35,93.8V93h-4.2v-1.3h4.4v-0.8h-5.4v5.2h5.4v-0.8h-4.4v-1.6H35L35,93.8z
		 M44,93.8V93h-4.2v-1.3h4.4v-0.8h-5.4v5.2h5.4v-0.8h-4.4v-1.6H44L44,93.8z M55.3,96.2v-1.9h3.1c1.2,0,1.9-0.4,1.9-1.1v-1
		c0-0.8-0.6-1.1-1.9-1.1h-4v5.2H55.3L55.3,96.2z M58.3,91.7c0.6,0,0.9,0.1,0.9,0.4v1c0,0.2-0.3,0.4-0.9,0.4h-3.1v-1.7H58.3
		L58.3,91.7z M63.4,96.2h5.2v-0.8h-4.2v-4.4h-1V96.2L63.4,96.2z M75.8,90.9h-0.7l-3.5,5.2h1.1l2.8-4.3l2.7,4.3h1.1L75.8,90.9
		L75.8,90.9z M83.6,96.2h1V94l3.3-3.1h-1.2l-2.6,2.4l-2.6-2.4h-1.3l3.3,3.1V96.2L83.6,96.2z M99.3,93c-0.6,0-0.9-0.1-0.9-0.4v-0.6
		c0-0.2,0.3-0.4,0.9-0.4h4.3v-0.8h-4.3c-1.2,0-1.9,0.4-1.9,1.1v0.6c0,0.8,0.6,1.1,1.9,1.1h2.8c0.6,0,0.9,0.1,0.9,0.4V95
		c0,0.2-0.3,0.3-0.9,0.3h-4.4v0.8h4.4c1.2,0,1.9-0.4,1.9-1.1v-0.9c0-0.7-0.6-1.1-1.9-1.1H99.3L99.3,93z M112.7,93.8V93h-4.2v-1.3
		h4.4v-0.8h-5.4v5.2h5.4v-0.8h-4.4v-1.6H112.7L112.7,93.8z M123.7,90.9h-1l-2.7,4.3l-2.8-4.3h-1.1l3.5,5.2h0.7L123.7,90.9
		L123.7,90.9z M132.1,93.8V93h-4.2v-1.3h4.4v-0.8h-5.4v5.2h5.4v-0.8h-4.4v-1.6H132.1L132.1,93.8z M141.9,96.2h0.8v-5.2h-0.9v4
		l-5.2-4h-0.8v5.2h0.9v-4L141.9,96.2L141.9,96.2z M152.8,96.2h4.6c1.4,0,2.2-0.5,2.2-1.4v-2.4c0-0.9-0.7-1.4-2.2-1.4h-4.6V96.2
		L152.8,96.2z M153.8,95.4v-3.7h3.6c0.8,0,1.2,0.2,1.2,0.7v2.4c0,0.4-0.4,0.6-1.2,0.6H153.8L153.8,95.4z M168.1,93.8V93h-4.2v-1.3
		h4.4v-0.8h-5.4v5.2h5.4v-0.8h-4.4v-1.6H168.1L168.1,93.8z M173.7,93c-0.6,0-0.9-0.1-0.9-0.4v-0.6c0-0.2,0.3-0.4,0.9-0.4h4.3v-0.8
		h-4.3c-1.2,0-1.9,0.4-1.9,1.1v0.6c0,0.8,0.6,1.1,1.9,1.1h2.8c0.6,0,0.9,0.1,0.9,0.4V95c0,0.2-0.3,0.3-0.9,0.3H172v0.8h4.4
		c1.2,0,1.9-0.4,1.9-1.1v-0.9c0-0.7-0.6-1.1-1.9-1.1H173.7L173.7,93z M182,96.2h1v-5.2h-1V96.2L182,96.2z M191.7,95
		c0,0.2-0.3,0.3-0.9,0.3h-2.3c-0.6,0-0.9-0.1-0.9-0.4v-3c0-0.2,0.3-0.4,0.9-0.4h4.1v-0.8h-4.1c-1.2,0-1.9,0.4-1.9,1.1v3
		c0,0.8,0.6,1.1,1.9,1.1h2.3c1.2,0,1.9-0.4,1.9-1.1v-1.7h-1V95L191.7,95z M202.5,96.2h0.8v-5.2h-0.9v4l-5.2-4h-0.8v5.2h0.9v-4
		L202.5,96.2L202.5,96.2z"/>
	<path class="st0" d="M112.2,50.4v-8.9V29.2H99.9H78H65.7v12.3v8.9v12.3v21.2H78V62.7h27.4L112.2,50.4L112.2,50.4z M99.9,50.4H78
		v-8.9h22V50.4L99.9,50.4z"/>
	<polygon class="st0" points="24.1,41.5 58.4,41.5 58.4,29.2 24.1,29.2 11.8,29.2 11.8,41.5 11.8,50.4 11.8,62.7 11.8,83.9 
		24.1,83.9 24.1,62.7 51.5,62.7 58.4,50.4 24.1,50.4 24.1,41.5 	"/>
	<polygon class="st0" points="166.1,29.2 166.1,29.2 151.6,29.2 151.6,29.2 119.5,29.2 119.5,41.5 144.8,41.5 121.3,83.9 
		135.9,83.9 166.1,29.2 166.1,29.2 166.1,29.2 	"/>
</g>
</svg>
