<?xml version="1.0" encoding="utf-8"?>
<!-- Generator: Adobe Illustrator 24.1.2, SVG Export Plug-In . SVG Version: 6.00 Build 0)  -->
<svg version="1.1" id="Слой_1" xmlns="http://www.w3.org/2000/svg" xmlns:xlink="http://www.w3.org/1999/xlink" x="0px" y="0px"
	 viewBox="0 0 215 125" style="enable-background:new 0 0 215 125;" xml:space="preserve">
<style type="text/css">
	.st0{fill:#FFFFFF;}
</style>
<g>
	<rect x="136.1" y="98.4" class="st0" width="70.4" height="1.1"/>
	<rect x="136.1" y="81.7" class="st0" width="20.3" height="1.1"/>
	<g>
		<path class="st0" d="M204.4,76.9h0.6v-5.3h1.3v-0.5h-3.2v0.5h1.3L204.4,76.9L204.4,76.9z M190.1,76.9h3.2v-0.5h-2.6v-2.1h2.5v-0.5
			h-2.5v-2.1h2.6v-0.5h-3.2V76.9z M176.6,76.9h3.2v-0.5h-2.6v-2.1h2.5v-0.5h-2.5v-2.1h2.6v-0.5h-3.2V76.9z M162.5,76.9h0.6v-5.3h1
			c1.4,0,1.7,0.7,1.7,1.3c0,1.3-1.4,1.3-1.7,1.3h-0.5l2,2.6h0.7l-1.6-2.2c1-0.1,1.7-0.8,1.7-1.7c0-0.5-0.1-1.9-2.3-1.9h-1.6
			L162.5,76.9L162.5,76.9z M150.7,76.9h0.6v-5.3h1.3v-0.5h-3.2v0.5h1.3L150.7,76.9L150.7,76.9z M136.3,75.3c0,1,0.8,1.7,1.8,1.7
			c1.2,0,1.8-0.9,1.8-1.7c0-1.3-1-1.5-1.7-1.7c-0.7-0.2-1.1-0.4-1.1-1c0-0.5,0.3-1.1,1-1.1c0.9,0,1.1,0.7,1.1,1h0.6
			c0-0.8-0.5-1.6-1.6-1.6c-1.2,0-1.7,0.9-1.7,1.6c0,1.3,1.3,1.4,2,1.7c0.3,0.1,0.8,0.3,0.8,1.1c0,0.6-0.4,1.2-1.2,1.2
			c-1.1,0-1.2-1-1.2-1.2H136.3z"/>
		<path class="st0" d="M204.8,93.9h0.6v-5.4h1.4V88h-3.3v0.5h1.4L204.8,93.9L204.8,93.9z M197.4,89.5c-0.5-1-1.5-1.6-2.7-1.6
			c-1.7,0-3.1,1.3-3.1,3c0,1.8,1.4,3.1,3.1,3.1c1.2,0,2.2-0.6,2.7-1.6h-0.7c-0.5,0.8-1.3,1.1-2,1.1c-1.4,0-2.5-1.1-2.5-2.5
			s1-2.5,2.5-2.5c1.3,0,1.9,0.8,2,1.1L197.4,89.5L197.4,89.5z M181,88v3.6c0,1.7,0.8,2.4,2,2.4c1.2,0,2-0.7,2-2.4V88h-0.6v3.6
			c0,0.4,0,1.9-1.4,1.9c-1.4,0-1.4-1.5-1.4-1.9V88H181z M170.1,93.4v-4.8h1c2.3,0,2.8,1.5,2.8,2.4c0,1.2-0.8,2.4-2.8,2.4H170.1z
			 M169.5,93.9h1.7c2.4,0,3.4-1.5,3.4-3c0-1.2-0.6-3-3.4-3h-1.6L169.5,93.9L169.5,93.9z M159.8,93.5c-1.4,0-2.6-1-2.6-2.5
			s1.1-2.5,2.6-2.5c1.4,0,2.5,1,2.5,2.5C162.3,92.4,161.2,93.5,159.8,93.5 M159.8,87.9c-1.8,0-3.1,1.3-3.1,3.1c0,1.8,1.4,3,3.1,3
			c1.8,0,3.1-1.3,3.1-3.1C162.9,89.2,161.6,87.9,159.8,87.9 M146.5,93.9h0.6v-5.4h1.1c1.4,0,1.8,0.7,1.8,1.3c0,1.3-1.4,1.4-1.8,1.4
			h-0.5l2,2.7h0.7l-1.7-2.2c1.1-0.1,1.7-0.8,1.7-1.8c0-0.5-0.1-1.9-2.4-1.9h-1.7v5.9H146.5z M136.7,88.5h1.3c1.1,0,1.4,0.6,1.4,1.2
			s-0.4,1.2-1.4,1.2h-1.3V88.5z M136.1,93.9h0.6v-2.4h1.3c1.5,0,2-0.9,2-1.8c0-0.7-0.3-1.8-2-1.8h-1.9V93.9L136.1,93.9z"/>
		<path class="st0" d="M195.7,48.5h1.5c2,0,3.6,0.7,3.6,3s-1.6,3-3.6,3h-1.5V48.5z M189.8,66.4h5.9v-7.7h2.3c5.5,0,8.7-2.7,8.7-7.1
			c0-5-3.2-7.2-9.9-7.2h-7C189.8,44.4,189.8,66.4,189.8,66.4z M163.4,66.4h15.9v-4.2h-10v-5h9.1V53h-9.1v-4.5h9.7v-4.2h-15.5
			L163.4,66.4L163.4,66.4z M136.6,65.8c2,0.6,4.5,0.9,6.6,0.9c4.9,0,9.7-1.5,9.7-7.3c0-8-10.4-5.6-10.4-9.1c0-1.9,2.5-2.1,3.9-2.1
			c1.7,0,3.4,0.3,4.9,1l0.4-4.5c-1.5-0.5-3.6-0.8-5.7-0.8c-4.4,0-9.6,1.5-9.6,6.8c0,8,10.4,5.4,10.4,9.5c0,1.8-1.8,2.1-3.6,2.1
			c-2.4,0-4.5-0.6-6.1-1.5L136.6,65.8z"/>
		<path class="st0" d="M197.6,110.3c0-2.1,0.8-3.9,2.8-3.9s2.8,1.8,2.8,3.9c0,2-0.8,3.9-2.8,3.9
			C198.4,114.2,197.6,112.3,197.6,110.3 M194.2,110.3c0,3.9,2.1,6.4,6.2,6.4c4,0,6.2-2.4,6.2-6.4c0-3.9-2.1-6.4-6.2-6.4
			S194.2,106.3,194.2,110.3 M187.9,116.4h3.3v-12.3h-3.3V116.4z M176.2,106.6h1.3c2.4,0,3.8,1.3,3.8,3.7s-1.4,3.7-3.8,3.7h-1.3
			V106.6z M172.9,116.4h4.5c4.2,0,7.3-1.6,7.3-6.2c0-4.8-3-6.1-7.3-6.1h-4.5V116.4z M169.8,104.1h-3.3v7.1c0,1.6-0.4,3-2.1,3
			s-2.1-1.4-2.1-3v-7.1H159v7.6c0,3.4,2.2,4.9,5.4,4.9s5.4-1.5,5.4-4.9V104.1L169.8,104.1z M150.4,116.4h3.3v-9.9h3v-2.4h-9.3v2.4h3
			V116.4z M136.2,116.1c1.1,0.4,2.5,0.5,3.7,0.5c2.7,0,5.4-0.9,5.4-4.1c0-4.4-5.8-3.1-5.8-5.1c0-1.1,1.4-1.1,2.2-1.1
			c0.9,0,1.9,0.2,2.7,0.6l0.2-2.5c-0.8-0.3-2-0.5-3.2-0.5c-2.5,0-5.4,0.8-5.4,3.8c0,4.5,5.8,3,5.8,5.3c0,1-1,1.2-2,1.2
			c-1.4,0-2.5-0.4-3.4-0.8L136.2,116.1z"/>
	</g>
	<rect x="186.3" y="81.7" class="st0" width="20.3" height="1.1"/>
	<path class="st0" d="M136.1,40h70.4c-0.2-1.9-0.5-3.8-1-5.7l-14.6,4.6l14.2-6.1c-0.6-1.9-1.3-3.7-2.2-5.4L189,35.2l13.1-9.2
		c-1-1.7-2.1-3.3-3.3-4.9L186.3,32l11.4-12.1c-1.3-1.5-2.8-2.8-4.3-4.1L183,29.4l9-14.6c-1.6-1.2-3.3-2.2-5.1-3.1l-7.6,15.7l6-16.5
		c-1.8-0.8-3.7-1.4-5.7-1.9l-4.3,16.9l2.6-17.3C176,8.2,174,8,171.9,8L171,25.7L170.1,8c-2,0.1-4,0.3-5.9,0.7l2.6,17.3l-4.3-17
		c-2,0.5-3.8,1.2-5.6,2l5.9,16.1l-7.5-15.4c-1.8,0.9-3.5,2-5.1,3.1l8.8,14.3L148.9,16c-1.5,1.3-2.9,2.6-4.2,4.1l11.3,12l-12.4-10.7
		c-1.2,1.5-2.3,3.2-3.2,4.9l12.9,9.1l-13.7-7.7c-0.9,1.7-1.6,3.5-2.1,5.4l13.6,5.9l-14-4.5C136.6,36.3,136.3,38.1,136.1,40"/>
	<path class="st0" d="M178.4,82.5c0-1.1,0.4-2,1.4-2s1.4,0.9,1.4,2c0,1-0.4,2-1.4,2S178.4,83.6,178.4,82.5 M176.7,82.5
		c0,2,1.1,3.2,3.1,3.2s3.1-1.2,3.1-3.2s-1.1-3.2-3.1-3.2C177.7,79.4,176.7,80.6,176.7,82.5 M173.5,84.2c-0.5,0.2-1,0.3-1.5,0.3
		c-1.2,0-2.1-0.7-2.1-1.9c0-1.1,0.8-2,1.9-2c0.6,0,1.1,0.1,1.6,0.4l0.1-1.3c-0.6-0.2-1.2-0.3-1.8-0.3c-2,0-3.5,1.1-3.5,3.2
		c0,2.3,1.9,3.2,3.5,3.2c0.8,0,1.4-0.1,1.8-0.2V84.2z M160.4,85.6h4.4v-1.2H162V83h2.6v-1.2H162v-1.3h2.7v-1.2h-4.3V85.6L160.4,85.6
		z"/>
	<path class="st0" d="M128.7,1.1h85.2v122.7h-85.2C128.7,123.8,128.7,1.1,128.7,1.1z M127.6,0v1.1v122.7v1.1h1.1h85.2h1.1l0,0V0
		H127.6z"/>
</g>
</svg>
