<?xml version="1.0" encoding="utf-8"?>
<!-- Generator: Adobe Illustrator 24.1.2, SVG Export Plug-In . SVG Version: 6.00 Build 0)  -->
<svg version="1.1" id="Слой_1" xmlns="http://www.w3.org/2000/svg" xmlns:xlink="http://www.w3.org/1999/xlink" x="0px" y="0px"
	 viewBox="0 0 215 125" style="enable-background:new 0 0 215 125;" xml:space="preserve">
<style type="text/css">
	.st0{fill:#FFFFFF;}
	.st1{clip-path:url(#SVGID_2_);fill:#FFFFFF;}
	.st2{clip-path:url(#SVGID_4_);fill:#FFFFFF;}
	.st3{clip-path:url(#SVGID_6_);fill:#FFFFFF;}
	.st4{clip-path:url(#SVGID_8_);fill:#FFFFFF;}
	.st5{clip-path:url(#SVGID_10_);fill:#FFFFFF;}
	.st6{clip-path:url(#SVGID_12_);fill:#FFFFFF;}
	.st7{clip-path:url(#SVGID_14_);fill:#FFFFFF;}
	.st8{clip-path:url(#SVGID_16_);fill:#FFFFFF;}
	.st9{clip-path:url(#SVGID_18_);fill:#FFFFFF;}
	.st10{clip-path:url(#SVGID_20_);fill:#FFFFFF;}
	.st11{clip-path:url(#SVGID_22_);fill:#FFFFFF;}
	.st12{clip-path:url(#SVGID_24_);fill:#FFFFFF;}
	.st13{clip-path:url(#SVGID_26_);fill:#FFFFFF;}
	.st14{clip-path:url(#SVGID_28_);fill:#FFFFFF;}
	.st15{clip-path:url(#SVGID_30_);fill:#FFFFFF;}
	.st16{clip-path:url(#SVGID_32_);fill:#FFFFFF;}
	.st17{clip-path:url(#SVGID_34_);fill:#FFFFFF;}
	.st18{clip-path:url(#SVGID_36_);fill:#FFFFFF;}
	.st19{clip-path:url(#SVGID_38_);fill:#FFFFFF;}
	.st20{clip-path:url(#SVGID_40_);fill:#FFFFFF;}
	.st21{clip-path:url(#SVGID_42_);fill:#FFFFFF;}
	.st22{clip-path:url(#SVGID_44_);fill:#FFFFFF;}
	.st23{clip-path:url(#SVGID_46_);fill:#FFFFFF;}
	.st24{clip-path:url(#SVGID_48_);fill:#FFFFFF;}
	.st25{clip-path:url(#SVGID_50_);fill:#FFFFFF;}
	.st26{clip-path:url(#SVGID_52_);fill:#FFFFFF;}
</style>
<polygon class="st0" points="136.2,71.2 136.8,71.2 138.9,74.3 141,71.2 141.7,71.2 141.7,76.9 141,76.9 141,72.3 138.9,75.4 
	138.9,75.4 136.8,72.3 136.8,76.9 136.2,76.9 "/>
<g>
	<g>
		<g>
			<defs>
				<rect id="SVGID_1_" x="127.6" y="0.1" width="87.4" height="124.9"/>
			</defs>
			<clipPath id="SVGID_2_">
				<use xlink:href="#SVGID_1_"  style="overflow:visible;"/>
			</clipPath>
			<path class="st1" d="M148.8,74.1c0-1.3-1-2.4-2.3-2.4s-2.3,1.1-2.3,2.4s1,2.4,2.3,2.4C147.9,76.4,148.8,75.4,148.8,74.1
				 M143.6,74.1c0-1.6,1.2-3,2.9-3c1.8,0,2.9,1.4,2.9,3s-1.2,3-2.9,3C144.8,77,143.6,75.7,143.6,74.1"/>
		</g>
	</g>
	<g>
		<g>
			<defs>
				<rect id="SVGID_3_" x="127.6" y="0.1" width="87.4" height="124.9"/>
			</defs>
			<clipPath id="SVGID_4_">
				<use xlink:href="#SVGID_3_"  style="overflow:visible;"/>
			</clipPath>
			<path class="st2" d="M151.4,74.1c0-1.6,1.2-3,2.9-3c1,0,1.7,0.4,2.2,0.9l-0.4,0.5c-0.5-0.5-1-0.8-1.8-0.8c-1.3,0-2.2,1-2.2,2.4
				c0,1.3,1,2.4,2.2,2.4c0.8,0,1.3-0.3,1.9-0.8l0.4,0.5c-0.6,0.6-1.3,1-2.3,1C152.6,77,151.4,75.7,151.4,74.1"/>
		</g>
	</g>
</g>
<polygon class="st0" points="158.5,71.2 159.2,71.2 159.2,74.6 162.5,71.2 163.3,71.2 160.9,73.7 163.5,76.9 162.6,76.9 160.4,74.1 
	159.2,75.4 159.2,76.9 158.5,76.9 "/>
<g>
	<g>
		<g>
			<defs>
				<rect id="SVGID_5_" x="127.6" y="0.1" width="87.4" height="124.9"/>
			</defs>
			<clipPath id="SVGID_6_">
				<use xlink:href="#SVGID_5_"  style="overflow:visible;"/>
			</clipPath>
			<path class="st3" d="M170.6,74.1c0-1.3-1-2.4-2.3-2.4s-2.3,1.1-2.3,2.4s1,2.4,2.3,2.4C169.7,76.4,170.6,75.4,170.6,74.1
				 M165.4,74.1c0-1.6,1.2-3,2.9-3c1.8,0,2.9,1.4,2.9,3s-1.2,3-2.9,3C166.6,77,165.4,75.7,165.4,74.1"/>
		</g>
	</g>
	<g>
		<g>
			<defs>
				<rect id="SVGID_7_" x="127.6" y="0.1" width="87.4" height="124.9"/>
			</defs>
			<clipPath id="SVGID_8_">
				<use xlink:href="#SVGID_7_"  style="overflow:visible;"/>
			</clipPath>
			<path class="st4" d="M175.8,76.4c0.9,0,1.4-0.4,1.4-1s-0.5-1-1.5-1h-1.8v2H175.8z M175.6,73.7c0.8,0,1.3-0.4,1.3-1
				s-0.5-0.9-1.3-0.9h-1.8v2L175.6,73.7L175.6,73.7z M173.2,71.2h2.5c0.7,0,1.2,0.2,1.5,0.5c0.2,0.2,0.4,0.6,0.4,0.9
				c0,0.7-0.5,1.1-0.9,1.3c0.7,0.2,1.2,0.6,1.2,1.4c0,1-0.8,1.6-2.1,1.6h-2.6V71.2L173.2,71.2z"/>
		</g>
	</g>
	<g>
		<g>
			<defs>
				<rect id="SVGID_9_" x="127.6" y="0.1" width="87.4" height="124.9"/>
			</defs>
			<clipPath id="SVGID_10_">
				<use xlink:href="#SVGID_9_"  style="overflow:visible;"/>
			</clipPath>
			<path class="st5" d="M179.8,74.1c0-1.6,1.2-3,2.9-3c1,0,1.7,0.4,2.2,0.9l-0.4,0.5c-0.5-0.5-1-0.8-1.8-0.8c-1.3,0-2.2,1-2.2,2.4
				c0,1.3,1,2.4,2.2,2.4c0.8,0,1.3-0.3,1.9-0.8l0.4,0.5c-0.6,0.6-1.3,1-2.3,1C181,77,179.8,75.7,179.8,74.1"/>
		</g>
	</g>
</g>
<polygon class="st0" points="186.9,71.2 187.6,71.2 187.6,74.6 190.9,71.2 191.7,71.2 189.2,73.7 191.8,76.9 191,76.9 188.8,74.1 
	187.6,75.4 187.6,76.9 186.9,76.9 "/>
<path class="st0" d="M198,74.8l-1.3-2.9l-1.3,2.9H198z M196.4,71.1h0.6l2.6,5.8h-0.7l-0.7-1.5h-3.1l-0.7,1.5h-0.7L196.4,71.1z"/>
<g>
	<g>
		<g>
			<defs>
				<rect id="SVGID_11_" x="127.6" y="0.1" width="87.4" height="124.9"/>
			</defs>
			<clipPath id="SVGID_12_">
				<use xlink:href="#SVGID_11_"  style="overflow:visible;"/>
			</clipPath>
			<path class="st6" d="M205.7,74.2v-2.4h-1.8c-0.9,0-1.5,0.5-1.5,1.2s0.6,1.2,1.5,1.2C203.9,74.2,205.7,74.2,205.7,74.2z
				 M203.4,74.6c-0.9-0.2-1.6-0.7-1.6-1.7c0-0.4,0.2-0.9,0.4-1.2c0.4-0.4,0.9-0.6,1.7-0.6h2.5v5.8h-0.6v-2.2h-1.7l-1.7,2.2h-0.8
				L203.4,74.6z"/>
		</g>
	</g>
	<g>
		<g>
			<defs>
				<rect id="SVGID_13_" x="127.6" y="0.1" width="87.4" height="124.9"/>
			</defs>
			<clipPath id="SVGID_14_">
				<use xlink:href="#SVGID_13_"  style="overflow:visible;"/>
			</clipPath>
			<path class="st7" d="M136.2,82.6c0-1.6,1.2-3,2.9-3c1,0,1.7,0.4,2.2,0.9l-0.4,0.5c-0.5-0.5-1-0.8-1.8-0.8c-1.3,0-2.2,1-2.2,2.4
				c0,1.3,1,2.4,2.2,2.4c0.8,0,1.3-0.3,1.9-0.8l0.4,0.5c-0.6,0.6-1.3,1-2.3,1C137.4,85.6,136.2,84.3,136.2,82.6"/>
		</g>
	</g>
</g>
<polygon class="st0" points="144,80.3 142.1,80.3 142.1,79.7 146.6,79.7 146.6,80.3 144.7,80.3 144.7,85.5 144,85.5 "/>
<g>
	<g>
		<g>
			<defs>
				<rect id="SVGID_15_" x="127.6" y="0.1" width="87.4" height="124.9"/>
			</defs>
			<clipPath id="SVGID_16_">
				<use xlink:href="#SVGID_15_"  style="overflow:visible;"/>
			</clipPath>
			<path class="st8" d="M149.9,82.9c1,0,1.6-0.5,1.6-1.3s-0.6-1.3-1.5-1.3h-1.5v2.5h1.4V82.9z M147.8,79.7h2.2
				c1.3,0,2.2,0.7,2.2,1.8c0,1.2-1,1.9-2.3,1.9h-1.4v2h-0.6L147.8,79.7L147.8,79.7z"/>
		</g>
	</g>
	<g>
		<g>
			<defs>
				<rect id="SVGID_17_" x="127.6" y="0.1" width="87.4" height="124.9"/>
			</defs>
			<clipPath id="SVGID_18_">
				<use xlink:href="#SVGID_17_"  style="overflow:visible;"/>
			</clipPath>
			<path class="st9" d="M158.3,82.6c0-1.3-1-2.4-2.3-2.4s-2.3,1.1-2.3,2.4s1,2.4,2.3,2.4S158.3,83.9,158.3,82.6 M153.1,82.6
				c0-1.6,1.2-3,2.9-3c1.8,0,2.9,1.4,2.9,3s-1.2,3-2.9,3C154.2,85.6,153.1,84.2,153.1,82.6"/>
		</g>
	</g>
</g>
<polygon class="st0" points="160.3,79.7 161,79.7 161,84.5 164.4,79.7 165,79.7 165,85.5 164.4,85.5 164.4,80.7 161,85.5 
	160.3,85.5 "/>
<polygon class="st0" points="168.2,80.3 166.3,80.3 166.3,79.7 170.8,79.7 170.8,80.3 168.8,80.3 168.8,85.5 168.2,85.5 "/>
<polygon class="st0" points="172,79.7 176.2,79.7 176.2,80.3 172.6,80.3 172.6,82.3 175.8,82.3 175.8,82.9 172.6,82.9 172.6,84.9 
	176.2,84.9 176.2,85.5 172,85.5 "/>
<g>
	<g>
		<g>
			<defs>
				<rect id="SVGID_19_" x="127.6" y="0.1" width="87.4" height="124.9"/>
			</defs>
			<clipPath id="SVGID_20_">
				<use xlink:href="#SVGID_19_"  style="overflow:visible;"/>
			</clipPath>
			<path class="st10" d="M176.7,85.4l0.1-0.5c0.1,0,0.3,0.1,0.5,0.1c0.4,0,1.2-0.3,1.2-4.2v-1h3.7v5.8h-0.6v-5.2h-2.5V81
				c0,4-0.8,4.6-1.7,4.6C177.2,85.6,176.8,85.5,176.7,85.4"/>
		</g>
	</g>
	<g>
		<g>
			<defs>
				<rect id="SVGID_21_" x="127.6" y="0.1" width="87.4" height="124.9"/>
			</defs>
			<clipPath id="SVGID_22_">
				<use xlink:href="#SVGID_21_"  style="overflow:visible;"/>
			</clipPath>
			<path class="st11" d="M186,84.9c0.9,0,1.5-0.4,1.5-1.2c0-0.7-0.6-1.1-1.5-1.1h-1.5V85L186,84.9L186,84.9z M183.9,79.7h0.7V82h1.5
				c1.2,0,2.2,0.5,2.2,1.7c0,1.1-0.8,1.8-2.1,1.8H184L183.9,79.7L183.9,79.7z"/>
		</g>
	</g>
</g>
<polygon class="st0" points="189.4,79.7 190,79.7 190,82.3 193.4,82.3 193.4,79.7 194,79.7 194,85.5 193.4,85.5 193.4,82.9 
	190,82.9 190,85.5 189.4,85.5 "/>
<path class="st0" d="M199.4,83.4l-1.3-2.9l-1.3,2.9H199.4z M197.8,79.7h0.6l2.6,5.8h-0.7l-0.7-1.5h-3.1l-0.7,1.5h-0.7L197.8,79.7z"
	/>
<g>
	<g>
		<g>
			<defs>
				<rect id="SVGID_23_" x="127.6" y="0.1" width="87.4" height="124.9"/>
			</defs>
			<clipPath id="SVGID_24_">
				<use xlink:href="#SVGID_23_"  style="overflow:visible;"/>
			</clipPath>
			<path class="st12" d="M205.8,82.7v-2.4H204c-0.9,0-1.5,0.5-1.5,1.2s0.6,1.2,1.5,1.2C204,82.7,205.8,82.7,205.8,82.7z M203.5,83.2
				c-0.9-0.2-1.6-0.7-1.6-1.7c0-0.4,0.1-0.9,0.4-1.2c0.4-0.4,0.9-0.6,1.7-0.6h2.5v5.8h-0.6v-2.2h-1.7l-1.7,2.2h-0.8L203.5,83.2z"/>
		</g>
	</g>
</g>
<polygon class="st0" points="136.2,88.3 136.8,88.3 136.8,91.7 140.1,88.3 141,88.3 138.5,90.8 141.1,94.1 140.2,94.1 138,91.3 
	136.8,92.5 136.8,94.1 136.2,94.1 "/>
<g>
	<g>
		<g>
			<defs>
				<rect id="SVGID_25_" x="127.6" y="0.1" width="87.4" height="124.9"/>
			</defs>
			<clipPath id="SVGID_26_">
				<use xlink:href="#SVGID_25_"  style="overflow:visible;"/>
			</clipPath>
			<path class="st13" d="M150.5,91.2c0-1.3-1-2.4-2.3-2.4s-2.3,1.1-2.3,2.4s1,2.4,2.3,2.4S150.5,92.5,150.5,91.2 M145.3,91.2
				c0-1.6,1.2-3,2.9-3c1.8,0,2.9,1.4,2.9,3s-1.2,3-2.9,3C146.4,94.2,145.3,92.8,145.3,91.2"/>
		</g>
	</g>
</g>
<polygon class="st0" points="155.4,88.3 156,88.3 158.1,91.4 160.2,88.3 160.9,88.3 160.9,94.1 160.2,94.1 160.2,89.4 158.1,92.5 
	158.1,92.5 156,89.4 156,94.1 155.4,94.1 "/>
<polygon class="st0" points="165.1,88.3 169.6,88.3 169.6,94.1 169,94.1 169,88.9 165.7,88.9 165.7,94.1 165.1,94.1 "/>
<path class="st0" d="M178.1,92l-1.3-2.9l-1.3,2.9H178.1z M176.5,88.3h0.6l2.6,5.8H179l-0.7-1.5h-3.1l-0.7,1.5h-0.7L176.5,88.3z"/>
<polygon class="st0" points="183.9,88.3 184.6,88.3 184.6,90.9 187.9,90.9 187.9,88.3 188.5,88.3 188.5,94.1 187.9,94.1 187.9,91.5 
	184.6,91.5 184.6,94.1 183.9,94.1 "/>
<polygon class="st0" points="192.7,88.3 193.4,88.3 193.4,93.1 196.8,88.3 197.5,88.3 197.5,94.1 196.8,94.1 196.8,89.3 193.4,94.1 
	192.7,94.1 "/>
<g>
	<g>
		<g>
			<defs>
				<rect id="SVGID_27_" x="127.6" y="0.1" width="87.4" height="124.9"/>
			</defs>
			<clipPath id="SVGID_28_">
				<use xlink:href="#SVGID_27_"  style="overflow:visible;"/>
			</clipPath>
			<path class="st14" d="M205.8,91.3v-2.4H204c-0.9,0-1.5,0.5-1.5,1.2s0.6,1.2,1.5,1.2C204,91.3,205.8,91.3,205.8,91.3z M203.5,91.8
				c-0.9-0.2-1.6-0.7-1.6-1.7c0-0.4,0.1-0.9,0.4-1.2c0.4-0.4,0.9-0.6,1.7-0.6h2.5v5.8h-0.6v-2.2h-1.7l-1.7,2.2h-0.8L203.5,91.8z"/>
		</g>
	</g>
</g>
<polygon class="st0" points="136.2,44.7 141.3,44.7 147.1,53.9 152.8,44.7 158,44.7 158,66.5 153.2,66.5 153.2,52.3 147.1,61.6 
	146.9,61.6 140.9,52.4 140.9,66.5 136.2,66.5 "/>
<g>
	<g>
		<g>
			<defs>
				<rect id="SVGID_29_" x="127.6" y="0.1" width="87.4" height="124.9"/>
			</defs>
			<clipPath id="SVGID_30_">
				<use xlink:href="#SVGID_29_"  style="overflow:visible;"/>
			</clipPath>
			<path class="st15" d="M162.6,55.6c0-6,4.5-10.9,11-10.9c4,0,6.2,1.5,8.2,3.4l-2.8,3.2c-1.6-1.5-3-2.3-5.4-2.3
				c-3.6,0-6.1,3-6.1,6.6s2.5,6.6,6.1,6.6c2.4,0,3.9-1,5.5-2.5l3,3.2c-2.2,2.3-4.6,3.6-8.6,3.6C167.2,66.5,162.6,61.7,162.6,55.6"/>
		</g>
	</g>
</g>
<polygon class="st0" points="186.6,44.7 191.4,44.7 191.4,54.2 200.3,44.7 206.1,44.7 197.2,54 206.5,66.5 200.7,66.5 194,57.2 
	191.4,59.9 191.4,66.5 186.6,66.5 "/>
<polygon class="st0" points="141.3,40.1 146.2,40.1 144.2,33.6 "/>
<polygon class="st0" points="138.1,33.9 139.7,40.1 139.7,40.2 139.8,40.1 143.4,32.1 "/>
<polygon class="st0" points="148.6,40.1 156.9,40.1 153.3,32.2 "/>
<polygon class="st0" points="159.9,40.1 169.7,40.1 164.9,32.4 "/>
<polygon class="st0" points="170.7,16.5 163.4,20.9 170.6,22.3 "/>
<g>
	<g>
		<g>
			<defs>
				<rect id="SVGID_31_" x="127.6" y="0.1" width="87.4" height="124.9"/>
			</defs>
			<clipPath id="SVGID_32_">
				<use xlink:href="#SVGID_31_"  style="overflow:visible;"/>
			</clipPath>
			<path class="st16" d="M142.2,24c-1.8,2.6-3.2,5.5-4.3,8.5l5.5-1.8L142.2,24z"/>
		</g>
	</g>
</g>
<polygon class="st0" points="170.7,14.5 170.7,9.7 163.3,13.5 "/>
<g>
	<g>
		<g>
			<defs>
				<rect id="SVGID_33_" x="127.6" y="0.1" width="87.4" height="124.9"/>
			</defs>
			<clipPath id="SVGID_34_">
				<use xlink:href="#SVGID_33_"  style="overflow:visible;"/>
			</clipPath>
			<path class="st17" d="M136.2,40.1h2.1l-1.2-4.9C136.6,36.8,136.3,38.4,136.2,40.1"/>
		</g>
	</g>
	<g>
		<g>
			<defs>
				<rect id="SVGID_35_" x="127.6" y="0.1" width="87.4" height="124.9"/>
			</defs>
			<clipPath id="SVGID_36_">
				<use xlink:href="#SVGID_35_"  style="overflow:visible;"/>
			</clipPath>
			<path class="st18" d="M170,8.5c-2.9,0.1-5.7,0.6-8.4,1.4l0.1,2.8L170,8.5z"/>
		</g>
	</g>
	<g>
		<g>
			<defs>
				<rect id="SVGID_37_" x="127.6" y="0.1" width="87.4" height="124.9"/>
			</defs>
			<clipPath id="SVGID_38_">
				<use xlink:href="#SVGID_37_"  style="overflow:visible;"/>
			</clipPath>
			<path class="st19" d="M160.3,10.3c-2.2,0.7-4.4,1.7-6.4,2.8h6.5L160.3,10.3z"/>
		</g>
	</g>
	<g>
		<g>
			<defs>
				<rect id="SVGID_39_" x="127.6" y="0.1" width="87.4" height="124.9"/>
			</defs>
			<clipPath id="SVGID_40_">
				<use xlink:href="#SVGID_39_"  style="overflow:visible;"/>
			</clipPath>
			<path class="st20" d="M151.2,14.9c-2.8,2-5.3,4.3-7.5,7l7.6-1.5L151.2,14.9z"/>
		</g>
	</g>
</g>
<polygon class="st0" points="152.6,30 151.6,22.8 146.1,30.2 "/>
<polygon class="st0" points="159,14.5 152.6,14.5 152.7,19.7 "/>
<polygon class="st0" points="153.8,29.1 160.1,21.8 152.8,21.7 "/>
<polygon class="st0" points="170.1,23.6 162.4,22.1 165.2,29.8 "/>
<polygon class="st0" points="154.4,31.4 158.3,39.9 163.7,31.8 "/>
<polygon class="st0" points="163.9,30.4 161.2,22.6 154.8,30.1 "/>
<polygon class="st0" points="150.5,22 143.4,23.3 144.6,30 "/>
<polygon class="st0" points="162,20.2 169.3,15.7 161.8,14.6 "/>
<polygon class="st0" points="160.6,20.5 160.4,15.1 154,20.3 "/>
<polygon class="st0" points="145.1,31.6 145.1,31.7 145,31.8 147.4,39.3 152.2,31.4 "/>
<polygon class="st0" points="171.3,40.1 176.5,31.9 171.3,31.9 166.2,31.9 171.3,40.1 171.3,40.1 "/>
<polygon class="st0" points="196.4,40.1 201.4,40.1 198.4,33.6 "/>
<polygon class="st0" points="199.3,32.1 202.9,40.1 202.9,40.2 202.9,40.1 204.5,33.9 "/>
<polygon class="st0" points="185.8,40.1 194.1,40.1 189.4,32.2 "/>
<polygon class="st0" points="172.9,40.1 182.8,40.1 177.7,32.4 "/>
<polygon class="st0" points="172,22.3 179.2,20.9 172,16.5 "/>
<g>
	<g>
		<g>
			<defs>
				<rect id="SVGID_41_" x="127.6" y="0.1" width="87.4" height="124.9"/>
			</defs>
			<clipPath id="SVGID_42_">
				<use xlink:href="#SVGID_41_"  style="overflow:visible;"/>
			</clipPath>
			<path class="st21" d="M200.5,24l-1.2,6.7l5.5,1.8C203.7,29.5,202.3,26.6,200.5,24"/>
		</g>
	</g>
</g>
<polygon class="st0" points="179.3,13.5 172,9.7 172,14.5 "/>
<g>
	<g>
		<g>
			<defs>
				<rect id="SVGID_43_" x="127.6" y="0.1" width="87.4" height="124.9"/>
			</defs>
			<clipPath id="SVGID_44_">
				<use xlink:href="#SVGID_43_"  style="overflow:visible;"/>
			</clipPath>
			<path class="st22" d="M205.6,35.2l-1.2,4.9h2.1C206.3,38.4,206,36.8,205.6,35.2"/>
		</g>
	</g>
	<g>
		<g>
			<defs>
				<rect id="SVGID_45_" x="127.6" y="0.1" width="87.4" height="124.9"/>
			</defs>
			<clipPath id="SVGID_46_">
				<use xlink:href="#SVGID_45_"  style="overflow:visible;"/>
			</clipPath>
			<path class="st23" d="M181,9.9c-2.7-0.8-5.5-1.2-8.4-1.4l8.3,4.2L181,9.9z"/>
		</g>
	</g>
	<g>
		<g>
			<defs>
				<rect id="SVGID_47_" x="127.6" y="0.1" width="87.4" height="124.9"/>
			</defs>
			<clipPath id="SVGID_48_">
				<use xlink:href="#SVGID_47_"  style="overflow:visible;"/>
			</clipPath>
			<path class="st24" d="M182.4,10.3l-0.1,2.8h6.5C186.7,12,184.6,11.1,182.4,10.3"/>
		</g>
	</g>
	<g>
		<g>
			<defs>
				<rect id="SVGID_49_" x="127.6" y="0.1" width="87.4" height="124.9"/>
			</defs>
			<clipPath id="SVGID_50_">
				<use xlink:href="#SVGID_49_"  style="overflow:visible;"/>
			</clipPath>
			<path class="st25" d="M191.4,14.9l-0.1,5.5l7.6,1.5C196.8,19.2,194.3,16.8,191.4,14.9"/>
		</g>
	</g>
</g>
<polygon class="st0" points="196.5,30.2 191.1,22.8 190.1,30 "/>
<polygon class="st0" points="190,19.7 190.1,14.5 183.7,14.5 "/>
<polygon class="st0" points="188.8,29.1 189.9,21.7 182.6,21.8 "/>
<polygon class="st0" points="180.2,22.1 172.6,23.6 177.5,29.8 "/>
<polygon class="st0" points="179,31.8 184.3,39.9 188.2,31.4 "/>
<polygon class="st0" points="187.8,30.1 181.5,22.6 178.7,30.4 "/>
<polygon class="st0" points="198,30 199.2,23.3 192.2,22 "/>
<polygon class="st0" points="180.8,14.6 173.3,15.7 180.7,20.2 "/>
<polygon class="st0" points="182.2,15.1 182,20.5 188.6,20.3 "/>
<polygon class="st0" points="197.6,31.7 197.5,31.6 190.5,31.4 195.2,39.3 197.6,31.8 "/>
<polygon class="st0" points="171.3,24.2 166.3,30.5 171.3,30.5 171.3,30.5 171.3,30.5 176.3,30.5 171.3,24.2 171.3,24.2 "/>
<g>
	<g>
		<g>
			<defs>
				<rect id="SVGID_51_" x="127.6" y="0.1" width="87.4" height="124.9"/>
			</defs>
			<clipPath id="SVGID_52_">
				<use xlink:href="#SVGID_51_"  style="overflow:visible;"/>
			</clipPath>
			<path class="st26" d="M201.2,111.7h-3.1l1.6-4.8l0,0L201.2,111.7z M193.1,116.6h3.3l1-2.6h4.6l0.9,2.6h3.6l-4.7-12.2h-4
				L193.1,116.6z M181.5,116.6h3.3v-9.9h3.9v9.9h3.3v-12.2h-10.4v12.2H181.5z M168.9,116.6h3.3v-9.9h3.9v9.9h3.3v-12.2H169v12.2
				H168.9z M159.1,116.6h3.4l5-12.2h-3.7l-2,6.4l-2.7-6.4h-3.7l4.9,9.6L159.1,116.6z M149,106.7h0.8c1.1,0,2,0.4,2,1.6
				c0,1.3-0.9,1.7-2,1.7H149V106.7z M145.7,116.6h3.3v-4.3h1.3c3,0,4.9-1.5,4.9-3.9c0-2.8-1.8-4-5.5-4h-3.9L145.7,116.6
				C145.8,116.6,145.7,116.6,145.7,116.6z M136.2,116.6h3.3v-9.9h5v-2.3h-8.3V116.6z"/>
		</g>
	</g>
</g>
<rect x="136.2" y="98.7" class="st0" width="70.3" height="1.1"/>
<path class="st0" d="M128.7,1.3h85.1v122.6h-85.1V1.3L128.7,1.3z M127.6,0.1v1.1v122.6v1.1h1.1h85.1h1.1l0,0V0.1H127.6z"/>
</svg>
