<?xml version="1.0" encoding="utf-8"?>
<!-- Generator: Adobe Illustrator 24.1.2, SVG Export Plug-In . SVG Version: 6.00 Build 0)  -->
<svg version="1.1" id="Слой_1" xmlns="http://www.w3.org/2000/svg" xmlns:xlink="http://www.w3.org/1999/xlink" x="0px" y="0px"
	 viewBox="0 0 609.4 354.3" style="enable-background:new 0 0 609.4 354.3;" xml:space="preserve">
<style type="text/css">
	.st0{fill:#FFFFFF;}
</style>
<path class="st0" d="M119.5,315.1H144l24.5,11.9v17.5h-49V315.1z M99.9,305.3v49h88.2v-29.4l-39.2-19.6H99.9z M197.9,305.3v49H286
	v-9.8h-68.6v-9.8H286v-9.8h-68.6v-9.8H286v-9.8H197.9z M295.8,305.3v29.4h68.6v9.8h-68.6v9.8H384v-29.4h-68.6v-9.8H384v-9.8H295.8z
	 M393.8,354.3h19.6v-49h-19.6V354.3z M423.2,305.3v49h88.2v-29.4h-19.6v19.6h-49v-29.4h68.6v-9.8H423.2z M589.8,305.3v29.4l-49-29.4
	h-19.6v49h19.6v-29.4l49,29.4h19.6v-49H589.8z"/>
<path class="st0" d="M213.1,56.6h283.1v169.8H213.1V56.6z M99.9,283.1h509.5V0H99.9V283.1z"/>
</svg>
