<?xml version="1.0" encoding="utf-8"?>
<!-- Generator: Adobe Illustrator 24.1.2, SVG Export Plug-In . SVG Version: 6.00 Build 0)  -->
<svg version="1.1" id="Слой_1" xmlns="http://www.w3.org/2000/svg" xmlns:xlink="http://www.w3.org/1999/xlink" x="0px" y="0px"
	 viewBox="0 0 215 125" style="enable-background:new 0 0 215 125;" xml:space="preserve">
<style type="text/css">
	.st0{fill:#1A1818;}
	.st1{clip-path:url(#SVGID_2_);fill:#1A1818;}
	.st2{clip-path:url(#SVGID_4_);fill:#1A1818;}
	.st3{clip-path:url(#SVGID_6_);fill:#1A1818;}
	.st4{clip-path:url(#SVGID_8_);fill:#1A1818;}
	.st5{clip-path:url(#SVGID_10_);fill:#1A1818;}
	.st6{clip-path:url(#SVGID_12_);fill:#1A1818;}
	.st7{clip-path:url(#SVGID_14_);fill:#1A1818;}
	.st8{clip-path:url(#SVGID_16_);fill:#1A1818;}
	.st9{clip-path:url(#SVGID_18_);fill:#1A1818;}
	.st10{fill:#E0001B;}
	.st11{clip-path:url(#SVGID_20_);fill:#E0001B;}
	.st12{clip-path:url(#SVGID_22_);fill:#E0001B;}
	.st13{clip-path:url(#SVGID_24_);fill:#E0001B;}
	.st14{clip-path:url(#SVGID_26_);fill:#E0001B;}
	.st15{clip-path:url(#SVGID_28_);fill:#1A1818;}
</style>
<polygon class="st0" points="136.9,71 137.5,71 139.6,74.1 141.7,71 142.3,71 142.3,76.7 141.7,76.7 141.7,72.1 139.6,75.1 
	139.6,75.1 137.5,72.1 137.5,76.7 136.9,76.7 "/>
<g>
	<defs>
		<rect id="SVGID_1_" x="128.5" y="1" width="86.1" height="123"/>
	</defs>
	<clipPath id="SVGID_2_">
		<use xlink:href="#SVGID_1_"  style="overflow:visible;"/>
	</clipPath>
	<path class="st1" d="M149.3,73.8c0-1.3-0.9-2.3-2.2-2.3c-1.3,0-2.2,1-2.2,2.3c0,1.3,0.9,2.3,2.2,2.3
		C148.4,76.2,149.3,75.1,149.3,73.8 M144.2,73.8c0-1.6,1.2-2.9,2.9-2.9c1.7,0,2.9,1.4,2.9,2.9c0,1.6-1.2,2.9-2.9,2.9
		C145.4,76.8,144.2,75.4,144.2,73.8"/>
	<path class="st1" d="M151.9,73.8c0-1.6,1.2-2.9,2.9-2.9c1,0,1.6,0.4,2.2,0.9l-0.4,0.5c-0.5-0.5-1-0.8-1.8-0.8c-1.3,0-2.2,1-2.2,2.3
		c0,1.3,0.9,2.3,2.2,2.3c0.8,0,1.3-0.3,1.8-0.8l0.4,0.4c-0.6,0.6-1.2,1-2.3,1C153.1,76.8,151.9,75.5,151.9,73.8"/>
</g>
<polygon class="st0" points="158.9,71 159.6,71 159.6,74.4 162.8,71 163.7,71 161.2,73.5 163.8,76.7 163,76.7 160.8,73.9 
	159.6,75.1 159.6,76.7 158.9,76.7 "/>
<g>
	<defs>
		<rect id="SVGID_3_" x="128.5" y="1" width="86.1" height="123"/>
	</defs>
	<clipPath id="SVGID_4_">
		<use xlink:href="#SVGID_3_"  style="overflow:visible;"/>
	</clipPath>
	<path class="st2" d="M170.8,73.8c0-1.3-0.9-2.3-2.2-2.3c-1.3,0-2.2,1-2.2,2.3c0,1.3,0.9,2.3,2.2,2.3
		C169.9,76.2,170.8,75.1,170.8,73.8 M165.7,73.8c0-1.6,1.2-2.9,2.9-2.9c1.7,0,2.9,1.4,2.9,2.9c0,1.6-1.2,2.9-2.9,2.9
		C166.8,76.8,165.7,75.4,165.7,73.8"/>
	<path class="st2" d="M175.9,76.1c0.9,0,1.4-0.4,1.4-1c0-0.6-0.5-1-1.5-1H174v2H175.9z M175.7,73.5c0.8,0,1.3-0.3,1.3-1
		c0-0.6-0.4-0.9-1.3-0.9H174v2H175.7z M173.4,71h2.4c0.6,0,1.2,0.2,1.5,0.5c0.2,0.2,0.4,0.5,0.4,0.9c0,0.7-0.5,1.1-0.9,1.3
		c0.7,0.2,1.2,0.6,1.2,1.4c0,1-0.8,1.5-2.1,1.5h-2.5V71z"/>
	<path class="st2" d="M179.9,73.8c0-1.6,1.2-2.9,2.9-2.9c1,0,1.6,0.4,2.2,0.9l-0.4,0.5c-0.5-0.5-1-0.8-1.8-0.8c-1.3,0-2.2,1-2.2,2.3
		c0,1.3,0.9,2.3,2.2,2.3c0.8,0,1.3-0.3,1.8-0.8l0.4,0.4c-0.6,0.6-1.2,1-2.3,1C181.1,76.8,179.9,75.5,179.9,73.8"/>
</g>
<polygon class="st0" points="186.9,71 187.5,71 187.5,74.4 190.8,71 191.6,71 189.2,73.5 191.7,76.7 190.9,76.7 188.7,73.9 
	187.5,75.1 187.5,76.7 186.9,76.7 "/>
<path class="st0" d="M197.8,74.6l-1.3-2.9l-1.3,2.9H197.8z M196.2,70.9h0.6l2.6,5.7h-0.7l-0.7-1.5h-3.1l-0.7,1.5h-0.7L196.2,70.9z"
	/>
<g>
	<defs>
		<rect id="SVGID_5_" x="128.5" y="1" width="86.1" height="123"/>
	</defs>
	<clipPath id="SVGID_6_">
		<use xlink:href="#SVGID_5_"  style="overflow:visible;"/>
	</clipPath>
	<path class="st3" d="M205.4,73.9v-2.4h-1.7c-0.9,0-1.5,0.5-1.5,1.2c0,0.7,0.6,1.2,1.5,1.2H205.4z M203.1,74.4
		c-0.9-0.2-1.5-0.7-1.5-1.7c0-0.4,0.1-0.9,0.4-1.1c0.3-0.3,0.9-0.6,1.7-0.6h2.4v5.7h-0.6v-2.2h-1.6l-1.7,2.2h-0.8L203.1,74.4z"/>
	<path class="st3" d="M136.9,82.3c0-1.6,1.2-2.9,2.9-2.9c1,0,1.6,0.4,2.2,0.9l-0.4,0.5c-0.5-0.5-1-0.8-1.8-0.8c-1.3,0-2.2,1-2.2,2.3
		c0,1.3,1,2.3,2.2,2.3c0.8,0,1.3-0.3,1.8-0.8l0.4,0.4c-0.6,0.6-1.2,1-2.3,1C138.1,85.2,136.9,83.9,136.9,82.3"/>
</g>
<polygon class="st0" points="144.6,80 142.7,80 142.7,79.4 147.2,79.4 147.2,80 145.3,80 145.3,85.1 144.6,85.1 "/>
<g>
	<defs>
		<rect id="SVGID_7_" x="128.5" y="1" width="86.1" height="123"/>
	</defs>
	<clipPath id="SVGID_8_">
		<use xlink:href="#SVGID_7_"  style="overflow:visible;"/>
	</clipPath>
	<path class="st4" d="M150.4,82.5c0.9,0,1.6-0.5,1.6-1.3c0-0.8-0.6-1.2-1.5-1.2H149v2.5H150.4z M148.4,79.4h2.1
		c1.3,0,2.1,0.7,2.1,1.8c0,1.2-1,1.9-2.2,1.9H149v2h-0.6V79.4z"/>
	<path class="st4" d="M158.7,82.3c0-1.3-0.9-2.3-2.2-2.3c-1.3,0-2.2,1-2.2,2.3c0,1.3,0.9,2.3,2.2,2.3
		C157.7,84.6,158.7,83.6,158.7,82.3 M153.5,82.3c0-1.6,1.2-2.9,2.9-2.9c1.7,0,2.9,1.4,2.9,2.9c0,1.6-1.2,2.9-2.9,2.9
		C154.7,85.2,153.5,83.8,153.5,82.3"/>
</g>
<polygon class="st0" points="160.7,79.4 161.3,79.4 161.3,84.1 164.7,79.4 165.3,79.4 165.3,85.1 164.7,85.1 164.7,80.4 161.3,85.1 
	160.7,85.1 "/>
<polygon class="st0" points="168.4,80 166.5,80 166.5,79.4 171,79.4 171,80 169.1,80 169.1,85.1 168.4,85.1 "/>
<polygon class="st0" points="172.2,79.4 176.3,79.4 176.3,80 172.8,80 172.8,81.9 175.9,81.9 175.9,82.5 172.8,82.5 172.8,84.5 
	176.3,84.5 176.3,85.1 172.2,85.1 "/>
<g>
	<defs>
		<rect id="SVGID_9_" x="128.5" y="1" width="86.1" height="123"/>
	</defs>
	<clipPath id="SVGID_10_">
		<use xlink:href="#SVGID_9_"  style="overflow:visible;"/>
	</clipPath>
	<path class="st5" d="M176.8,85l0.1-0.5c0.1,0,0.3,0.1,0.5,0.1c0.4,0,1.2-0.3,1.2-4.1v-1h3.7v5.7h-0.6V80h-2.4v0.6
		c0,4-0.8,4.5-1.7,4.5C177.3,85.2,176.9,85.1,176.8,85"/>
	<path class="st5" d="M186,84.5c0.9,0,1.5-0.4,1.5-1.2c0-0.7-0.6-1.1-1.5-1.1h-1.5v2.3H186z M183.9,79.4h0.6v2.2h1.4
		c1.2,0,2.2,0.5,2.2,1.7c0,1.1-0.8,1.8-2.1,1.8h-2.2V79.4z"/>
</g>
<polygon class="st0" points="189.3,79.4 189.9,79.4 189.9,81.9 193.2,81.9 193.2,79.4 193.9,79.4 193.9,85.1 193.2,85.1 193.2,82.5 
	189.9,82.5 189.9,85.1 189.3,85.1 "/>
<path class="st0" d="M199.2,83l-1.3-2.9l-1.3,2.9H199.2z M197.6,79.4h0.6l2.6,5.7h-0.7l-0.7-1.5h-3.1l-0.7,1.5H195L197.6,79.4z"/>
<g>
	<defs>
		<rect id="SVGID_11_" x="128.5" y="1" width="86.1" height="123"/>
	</defs>
	<clipPath id="SVGID_12_">
		<use xlink:href="#SVGID_11_"  style="overflow:visible;"/>
	</clipPath>
	<path class="st6" d="M205.5,82.4V80h-1.7c-0.9,0-1.5,0.5-1.5,1.2c0,0.7,0.6,1.2,1.5,1.2H205.5z M203.2,82.8
		c-0.9-0.2-1.5-0.7-1.5-1.7c0-0.4,0.1-0.9,0.4-1.1c0.3-0.3,0.9-0.6,1.7-0.6h2.4v5.7h-0.6v-2.2h-1.6l-1.7,2.2h-0.8L203.2,82.8z"/>
</g>
<polygon class="st0" points="136.9,87.9 137.5,87.9 137.5,91.2 140.8,87.9 141.6,87.9 139.2,90.3 141.7,93.5 140.9,93.5 138.7,90.8 
	137.5,92 137.5,93.5 136.9,93.5 "/>
<g>
	<defs>
		<rect id="SVGID_13_" x="128.5" y="1" width="86.1" height="123"/>
	</defs>
	<clipPath id="SVGID_14_">
		<use xlink:href="#SVGID_13_"  style="overflow:visible;"/>
	</clipPath>
	<path class="st7" d="M151,90.7c0-1.3-0.9-2.3-2.2-2.3c-1.3,0-2.2,1-2.2,2.3c0,1.3,0.9,2.3,2.2,2.3C150.1,93,151,92,151,90.7
		 M145.9,90.7c0-1.6,1.2-2.9,2.9-2.9c1.7,0,2.9,1.4,2.9,2.9c0,1.6-1.2,2.9-2.9,2.9C147,93.6,145.9,92.3,145.9,90.7"/>
</g>
<polygon class="st0" points="155.8,87.9 156.4,87.9 158.5,91 160.6,87.9 161.2,87.9 161.2,93.5 160.6,93.5 160.6,88.9 158.5,92 
	158.5,92 156.4,88.9 156.4,93.5 155.8,93.5 "/>
<polygon class="st0" points="165.4,87.9 169.8,87.9 169.8,93.5 169.2,93.5 169.2,88.4 166,88.4 166,93.5 165.4,93.5 "/>
<path class="st0" d="M178.2,91.5l-1.3-2.9l-1.3,2.9H178.2z M176.6,87.8h0.6l2.6,5.7h-0.7l-0.7-1.5h-3.1l-0.7,1.5H174L176.6,87.8z"/>
<polygon class="st0" points="183.9,87.9 184.6,87.9 184.6,90.4 187.8,90.4 187.8,87.9 188.5,87.9 188.5,93.5 187.8,93.5 187.8,91 
	184.6,91 184.6,93.5 183.9,93.5 "/>
<polygon class="st0" points="192.6,87.9 193.3,87.9 193.3,92.6 196.6,87.9 197.3,87.9 197.3,93.5 196.6,93.5 196.6,88.8 193.2,93.5 
	192.6,93.5 "/>
<g>
	<defs>
		<rect id="SVGID_15_" x="128.5" y="1" width="86.1" height="123"/>
	</defs>
	<clipPath id="SVGID_16_">
		<use xlink:href="#SVGID_15_"  style="overflow:visible;"/>
	</clipPath>
	<path class="st8" d="M205.5,90.8v-2.4h-1.7c-0.9,0-1.5,0.5-1.5,1.2c0,0.7,0.6,1.2,1.5,1.2H205.5z M203.2,91.3
		c-0.9-0.2-1.5-0.7-1.5-1.7c0-0.4,0.1-0.9,0.4-1.1c0.3-0.3,0.9-0.6,1.7-0.6h2.4v5.7h-0.6v-2.2h-1.6l-1.7,2.2h-0.8L203.2,91.3z"/>
</g>
<polygon class="st0" points="136.9,44.9 142,44.9 147.6,54 153.3,44.9 158.4,44.9 158.4,66.4 153.7,66.4 153.7,52.4 147.6,61.6 
	147.5,61.6 141.5,52.5 141.5,66.4 136.9,66.4 "/>
<g>
	<defs>
		<rect id="SVGID_17_" x="128.5" y="1" width="86.1" height="123"/>
	</defs>
	<clipPath id="SVGID_18_">
		<use xlink:href="#SVGID_17_"  style="overflow:visible;"/>
	</clipPath>
	<path class="st9" d="M162.9,55.7c0-5.9,4.5-10.7,10.8-10.7c3.9,0,6.1,1.5,8,3.4l-2.7,3.1c-1.6-1.5-3-2.3-5.3-2.3
		c-3.5,0-6,2.9-6,6.5c0,3.6,2.5,6.5,6,6.5c2.4,0,3.8-0.9,5.5-2.4l2.9,3.1c-2.1,2.3-4.5,3.5-8.5,3.5
		C167.4,66.4,162.9,61.7,162.9,55.7"/>
</g>
<polygon class="st0" points="186.6,44.9 191.3,44.9 191.3,54.3 200,44.9 205.8,44.9 197,54 206.2,66.4 200.5,66.4 193.8,57.3 
	191.3,59.8 191.3,66.4 186.6,66.4 "/>
<polygon class="st10" points="141.9,40.4 146.8,40.4 144.8,34 "/>
<polygon class="st10" points="138.8,34.2 140.4,40.4 140.4,40.4 140.4,40.4 144,32.5 "/>
<polygon class="st10" points="149.1,40.4 157.3,40.4 153.7,32.6 "/>
<polygon class="st10" points="160.2,40.4 169.9,40.4 165.2,32.8 "/>
<polygon class="st10" points="170.9,17.2 163.7,21.5 170.8,22.9 "/>
<g>
	<defs>
		<rect id="SVGID_19_" x="128.5" y="1" width="86.1" height="123"/>
	</defs>
	<clipPath id="SVGID_20_">
		<use xlink:href="#SVGID_19_"  style="overflow:visible;"/>
	</clipPath>
	<path class="st11" d="M142.8,24.5c-1.8,2.6-3.2,5.4-4.2,8.4l5.4-1.8L142.8,24.5z"/>
</g>
<polygon class="st10" points="170.9,15.2 170.9,10.5 163.6,14.2 "/>
<g>
	<defs>
		<rect id="SVGID_21_" x="128.5" y="1" width="86.1" height="123"/>
	</defs>
	<clipPath id="SVGID_22_">
		<use xlink:href="#SVGID_21_"  style="overflow:visible;"/>
	</clipPath>
	<path class="st12" d="M136.9,40.4h2.1l-1.2-4.8C137.4,37.1,137.1,38.7,136.9,40.4"/>
	<path class="st12" d="M170.2,9.3c-2.9,0.1-5.6,0.6-8.3,1.3l0.1,2.8L170.2,9.3z"/>
	<path class="st12" d="M160.6,11.1c-2.2,0.7-4.3,1.7-6.3,2.8l6.4,0L160.6,11.1z"/>
	<path class="st12" d="M151.7,15.5c-2.8,1.9-5.3,4.3-7.4,6.9l7.5-1.4L151.7,15.5z"/>
</g>
<polygon class="st10" points="153,30.5 152,23.3 146.7,30.7 "/>
<polygon class="st10" points="159.3,15.2 153,15.2 153.1,20.3 "/>
<polygon class="st10" points="154.3,29.6 160.4,22.4 153.3,22.2 "/>
<polygon class="st10" points="170.3,24.1 162.8,22.7 165.4,30.2 "/>
<polygon class="st10" points="154.9,31.8 158.7,40.2 164,32.2 "/>
<polygon class="st10" points="164.2,30.9 161.5,23.2 155.3,30.5 "/>
<polygon class="st10" points="151,22.5 144,23.9 145.2,30.4 "/>
<polygon class="st10" points="162.3,20.8 169.6,16.4 162.1,15.3 "/>
<polygon class="st10" points="161,21.1 160.8,15.7 154.5,20.9 "/>
<polygon class="st10" points="145.7,32.1 145.6,32.1 145.6,32.2 148,39.6 152.6,31.8 "/>
<polygon class="st10" points="171.5,40.3 176.6,32.3 171.5,32.3 166.4,32.3 171.5,40.3 171.5,40.4 171.5,40.3 171.5,40.4 "/>
<polygon class="st10" points="196.2,40.4 201.1,40.4 198.2,34 "/>
<polygon class="st10" points="199,32.5 202.6,40.4 202.6,40.4 202.7,40.4 204.2,34.2 "/>
<polygon class="st10" points="185.7,40.4 193.9,40.4 189.3,32.6 "/>
<polygon class="st10" points="173.1,40.4 182.8,40.4 177.8,32.8 "/>
<polygon class="st10" points="172.2,22.9 179.3,21.5 172.2,17.2 "/>
<g>
	<defs>
		<rect id="SVGID_23_" x="128.5" y="1" width="86.1" height="123"/>
	</defs>
	<clipPath id="SVGID_24_">
		<use xlink:href="#SVGID_23_"  style="overflow:visible;"/>
	</clipPath>
	<path class="st13" d="M200.2,24.5l-1.2,6.6l5.4,1.8C203.4,29.9,202,27.1,200.2,24.5"/>
</g>
<polygon class="st10" points="179.4,14.2 172.1,10.5 172.2,15.2 "/>
<g>
	<defs>
		<rect id="SVGID_25_" x="128.5" y="1" width="86.1" height="123"/>
	</defs>
	<clipPath id="SVGID_26_">
		<use xlink:href="#SVGID_25_"  style="overflow:visible;"/>
	</clipPath>
	<path class="st14" d="M205.3,35.6l-1.2,4.8h2.1C206,38.7,205.7,37.1,205.3,35.6"/>
	<path class="st14" d="M181.1,10.6c-2.6-0.8-5.4-1.2-8.3-1.3l8.2,4.1L181.1,10.6z"/>
	<path class="st14" d="M182.4,11.1l-0.1,2.8l6.4,0C186.7,12.7,184.6,11.8,182.4,11.1"/>
	<path class="st14" d="M191.3,15.5l-0.1,5.4l7.5,1.4C196.6,19.8,194.1,17.5,191.3,15.5"/>
</g>
<polygon class="st10" points="196.3,30.7 191,23.3 190,30.5 "/>
<polygon class="st10" points="189.9,20.3 190,15.2 183.7,15.2 "/>
<polygon class="st10" points="188.8,29.6 189.8,22.2 182.6,22.4 "/>
<polygon class="st10" points="180.3,22.7 172.7,24.1 177.6,30.2 "/>
<polygon class="st10" points="179,32.2 184.3,40.2 188.2,31.8 "/>
<polygon class="st10" points="187.7,30.5 181.5,23.2 178.8,30.9 "/>
<polygon class="st10" points="197.8,30.4 199,23.9 192.1,22.5 "/>
<polygon class="st10" points="180.9,15.3 173.5,16.4 180.7,20.8 "/>
<polygon class="st10" points="182.2,15.7 182.1,21.1 188.6,20.9 "/>
<polygon class="st10" points="197.4,32.1 197.3,32.1 190.4,31.8 195,39.6 197.4,32.2 "/>
<polygon class="st10" points="171.5,24.8 166.6,30.9 171.5,31 171.5,31 171.5,31 176.4,30.9 171.5,24.8 171.5,24.8 171.5,24.8 
	171.5,24.8 "/>
<g>
	<defs>
		<rect id="SVGID_27_" x="128.5" y="1" width="86.1" height="123"/>
	</defs>
	<clipPath id="SVGID_28_">
		<use xlink:href="#SVGID_27_"  style="overflow:visible;"/>
	</clipPath>
	<path class="st15" d="M201,110.9h-3l1.6-4.7h0L201,110.9z M193,115.8h3.3l0.9-2.6h4.5l0.9,2.6h3.5l-4.6-12h-3.9L193,115.8z
		 M181.5,115.8h3.2V106h3.8v9.8h3.2v-12h-10.2V115.8z M169.1,115.8h3.2V106h3.8v9.8h3.2v-12h-10.2V115.8z M159.5,115.8h3.4l5-12
		h-3.7l-2,6.3l-2.7-6.3h-3.7l4.8,9.5L159.5,115.8z M149.5,106h0.8c1.1,0,2,0.4,2,1.6c0,1.3-0.9,1.7-2,1.7h-0.8V106z M146.3,115.8
		h3.2v-4.2h1.2c3,0,4.8-1.4,4.8-3.9c0-2.7-1.7-4-5.4-4h-3.8V115.8z M136.9,115.8h3.2V106h5v-2.3h-8.2V115.8z"/>
</g>
<rect x="136.9" y="98.1" class="st10" width="69.3" height="1.1"/>
<path class="st10" d="M129.6,2.1h83.8v120.8h-83.8V2.1z M128.5,1v1.1v120.8v1.1h1.1h83.8h1.1h0V1H128.5z"/>
</svg>
