<?xml version="1.0" encoding="utf-8"?>
<!-- Generator: Adobe Illustrator 24.1.2, SVG Export Plug-In . SVG Version: 6.00 Build 0)  -->
<svg version="1.1" id="Слой_1" xmlns="http://www.w3.org/2000/svg" xmlns:xlink="http://www.w3.org/1999/xlink" x="0px" y="0px"
	 viewBox="0 0 100 100" style="enable-background:new 0 0 100 100;" xml:space="preserve">
<style type="text/css">
	.st0{fill:#FFFFFF;}
</style>
<g>
	<g>
		<g>
			<path class="st0" d="M50,100C22.4,100,0,77.6,0,50C0,22.4,22.4,0,50,0s50,22.4,50,50C100,77.6,77.6,100,50,100z M50,3.4
				C24.3,3.4,3.5,24.3,3.5,50c0,25.7,20.9,46.5,46.5,46.5S96.6,75.7,96.6,50C96.6,24.3,75.7,3.4,50,3.4z"/>
		</g>
		<path class="st0" d="M21,35.2c2.7,0,8.5,0,10.5,0c0.4,0,0.8,0.2,0.9,0.6c2.4,5.2,5.3,10,8.9,14.2c0.3,0.5,1,0.4,1.3-0.1
			c1.1-2.7,3.1-9.2-0.8-13.9c-0.4-0.4-0.2-1.1,0.3-1.3c4-1.7,7.9-1.9,11.7-0.2c0.8,0.4,1.3,1.2,1.3,2L56,50c0,0.6,0.5,1.1,1.1,1
			c4.4-0.9,7-7.5,9.5-14.4c0.3-0.8,1.1-1.4,2-1.4h9.7c0.8,0,1.4,0.7,1.3,1.5c-0.9,4.9-5.8,11.2-8.4,14.2c-0.9,1-0.9,2.6,0,3.6
			l8.6,10.3c0.6,0.7,0.1,1.9-0.9,1.9H68c-0.9,0-1.8-0.4-2.4-1L58,59.2c-0.4-0.4-1.1-0.6-1.5-0.1c-0.9,1.2-0.9,2.6-1.3,5.8
			c-0.1,1-1,1.7-2.1,1.7h-7.5c-1.1,0-2.1-0.2-3.1-0.7c-4.3-2-16-9.2-22.6-29.4C19.8,35.9,20.3,35.2,21,35.2z"/>
	</g>
	<g>
		<g>
			<path class="st0" d="M50,100C22.4,100,0,77.6,0,50C0,22.4,22.4,0,50,0s50,22.4,50,50C100,77.6,77.6,100,50,100z M50,3.4
				C24.3,3.4,3.5,24.3,3.5,50c0,25.7,20.9,46.5,46.5,46.5S96.6,75.7,96.6,50C96.6,24.3,75.7,3.4,50,3.4z"/>
		</g>
		<path class="st0" d="M21,35.2c2.7,0,8.5,0,10.5,0c0.4,0,0.8,0.2,0.9,0.6c2.4,5.2,5.3,10,8.9,14.2c0.3,0.5,1,0.4,1.3-0.1
			c1.1-2.7,3.1-9.2-0.8-13.9c-0.4-0.4-0.2-1.1,0.3-1.3c4-1.7,7.9-1.9,11.7-0.2c0.8,0.4,1.3,1.2,1.3,2L56,50c0,0.6,0.5,1.1,1.1,1
			c4.4-0.9,7-7.5,9.5-14.4c0.3-0.8,1.1-1.4,2-1.4h9.7c0.8,0,1.4,0.7,1.3,1.5c-0.9,4.9-5.8,11.2-8.4,14.2c-0.9,1-0.9,2.6,0,3.6
			l8.6,10.3c0.6,0.7,0.1,1.9-0.9,1.9H68c-0.9,0-1.8-0.4-2.4-1L58,59.2c-0.4-0.4-1.1-0.6-1.5-0.1c-0.9,1.2-0.9,2.6-1.3,5.8
			c-0.1,1-1,1.7-2.1,1.7h-7.5c-1.1,0-2.1-0.2-3.1-0.7c-4.3-2-16-9.2-22.6-29.4C19.8,35.9,20.3,35.2,21,35.2z"/>
	</g>
</g>
</svg>
