<?xml version="1.0" encoding="utf-8"?>
<!-- Generator: Adobe Illustrator 24.1.2, SVG Export Plug-In . SVG Version: 6.00 Build 0)  -->
<svg version="1.1" id="Слой_1" xmlns="http://www.w3.org/2000/svg" xmlns:xlink="http://www.w3.org/1999/xlink" x="0px" y="0px"
	 viewBox="0 0 100 100" style="enable-background:new 0 0 100 100;" xml:space="preserve">
<style type="text/css">
	.st0{fill:#FFFFFF;}
</style>
<g>
	<g>
		<g>
			<path class="st0" d="M49.9,99.7C22.4,99.7,0,77.4,0,49.9C0,22.4,22.4,0,49.9,0s49.9,22.4,49.9,49.9
				C99.7,77.4,77.4,99.7,49.9,99.7z M49.9,3.4C24.3,3.4,3.4,24.3,3.4,49.9c0,25.6,20.8,46.4,46.4,46.4s46.4-20.8,46.4-46.4
				C96.3,24.3,75.5,3.4,49.9,3.4z"/>
		</g>
		<g>
			<path class="st0" d="M23.7,78.5l4.6-14.2c-6.7-9.9-5.7-23.3,2.4-32.1c9.7-10.5,26.2-11.2,36.7-1.5c5.1,4.7,8.1,11.1,8.3,18
				c0.3,6.9-2.2,13.6-6.9,18.7c-8.1,8.8-21.4,10.9-31.8,5.1L23.7,78.5z M49.9,26.6c-0.3,0-0.6,0-1,0C42.7,26.8,37,29.5,32.8,34
				c-7.4,8.1-8.2,20.4-1.8,29.2l0.4,0.6l-3.1,9.6l9-4.1l0.6,0.4c9.4,5.6,21.6,3.9,29-4.2C71.1,61,73.3,55,73,48.8
				c-0.3-6.2-2.9-11.9-7.5-16.1C61.2,28.7,55.7,26.6,49.9,26.6z"/>
		</g>
		<path class="st0" d="M47.6,52.1c0.9,0.9,2.8,2.7,4.1,3c1.3,0.3,2.3-0.4,3.3-1.3c0.5-0.5,0.8-1,2.1-1.2c1.3-0.2,5.1,2.3,6,3.3
			c2.7,3.3,0.3,6.9-3.4,7.2c-4.6,0.4-10.7-3.8-15-8.1s-8.5-10.4-8.1-15c0.3-3.7,4-6.2,7.2-3.4c1.1,0.9,3.6,4.7,3.3,6
			c-0.2,1.3-0.8,1.5-1.2,2.1c-0.9,1-1.6,2-1.3,3.3C44.9,49.3,46.7,51.2,47.6,52.1z"/>
	</g>
	<g>
		<g>
			<path class="st0" d="M49.9,99.7C22.4,99.7,0,77.4,0,49.9C0,22.4,22.4,0,49.9,0s49.9,22.4,49.9,49.9
				C99.7,77.4,77.4,99.7,49.9,99.7z M49.9,3.4C24.3,3.4,3.4,24.3,3.4,49.9c0,25.6,20.8,46.4,46.4,46.4s46.4-20.8,46.4-46.4
				C96.3,24.3,75.5,3.4,49.9,3.4z"/>
		</g>
		<g>
			<path class="st0" d="M23.7,78.5l4.6-14.2c-6.7-9.9-5.7-23.3,2.4-32.1c9.7-10.5,26.2-11.2,36.7-1.5c5.1,4.7,8.1,11.1,8.3,18
				c0.3,6.9-2.2,13.6-6.9,18.7c-8.1,8.8-21.4,10.9-31.8,5.1L23.7,78.5z M49.9,26.6c-0.3,0-0.6,0-1,0C42.7,26.8,37,29.5,32.8,34
				c-7.4,8.1-8.2,20.4-1.8,29.2l0.4,0.6l-3.1,9.6l9-4.1l0.6,0.4c9.4,5.6,21.6,3.9,29-4.2C71.1,61,73.3,55,73,48.8
				c-0.3-6.2-2.9-11.9-7.5-16.1C61.2,28.7,55.7,26.6,49.9,26.6z"/>
		</g>
		<path class="st0" d="M47.6,52.1c0.9,0.9,2.8,2.7,4.1,3c1.3,0.3,2.3-0.4,3.3-1.3c0.5-0.5,0.8-1,2.1-1.2c1.3-0.2,5.1,2.3,6,3.3
			c2.7,3.3,0.3,6.9-3.4,7.2c-4.6,0.4-10.7-3.8-15-8.1s-8.5-10.4-8.1-15c0.3-3.7,4-6.2,7.2-3.4c1.1,0.9,3.6,4.7,3.3,6
			c-0.2,1.3-0.8,1.5-1.2,2.1c-0.9,1-1.6,2-1.3,3.3C44.9,49.3,46.7,51.2,47.6,52.1z"/>
	</g>
</g>
</svg>
