<?xml version="1.0" encoding="utf-8"?>
<!-- Generator: Adobe Illustrator 24.1.2, SVG Export Plug-In . SVG Version: 6.00 Build 0)  -->
<svg version="1.1" id="Слой_1" xmlns="http://www.w3.org/2000/svg" xmlns:xlink="http://www.w3.org/1999/xlink" x="0px" y="0px"
	 viewBox="0 0 100 100" style="enable-background:new 0 0 100 100;" xml:space="preserve">
<style type="text/css">
	.st0{fill:#FFFFFF;}
</style>
<g>
	<g>
		<g>
			<path class="st0" d="M50.1,99.8c-27.5,0-49.9-22.4-49.9-49.9C0.2,22.4,22.5,0,50.1,0C77.6,0,100,22.4,100,49.9
				C100,77.4,77.6,99.8,50.1,99.8z M50.1,3.4C24.4,3.4,3.6,24.3,3.6,49.9c0,25.6,20.8,46.5,46.5,46.5c25.6,0,46.5-20.8,46.5-46.5
				C96.5,24.3,75.7,3.4,50.1,3.4z"/>
		</g>
		<g>
			<g>
				<path class="st0" d="M62.5,77.1H37.7c-8.2,0-14.8-6.6-14.8-14.8V37.5c0-8.2,6.6-14.8,14.8-14.8h24.8c8.2,0,14.8,6.6,14.8,14.8
					v24.8C77.3,70.5,70.6,77.1,62.5,77.1z M37.7,25.5c-6.6,0-12,5.4-12,12v24.8c0,6.6,5.4,12,12,12h24.8c6.6,0,12-5.4,12-12V37.5
					c0-6.6-5.4-12-12-12H37.7z"/>
			</g>
			<g>
				<path class="st0" d="M50.1,66.8c-9.3,0-16.9-7.6-16.9-16.9c0-9.3,7.6-16.9,16.9-16.9c9.3,0,16.9,7.6,16.9,16.9
					C66.9,59.2,59.4,66.8,50.1,66.8z M50.1,35.8c-7.8,0-14.1,6.3-14.1,14.1C36,57.7,42.3,64,50.1,64c7.8,0,14.1-6.3,14.1-14.1
					C64.2,42.1,57.8,35.8,50.1,35.8z"/>
			</g>
			<path class="st0" d="M69.3,33.9c0,1.4-1.1,2.5-2.5,2.5c-1.4,0-2.5-1.1-2.5-2.5c0-1.4,1.1-2.5,2.5-2.5
				C68.2,31.3,69.3,32.5,69.3,33.9z"/>
		</g>
	</g>
	<g>
		<g>
			<path class="st0" d="M50.1,99.8c-27.5,0-49.9-22.4-49.9-49.9C0.2,22.4,22.5,0,50.1,0C77.6,0,100,22.4,100,49.9
				C100,77.4,77.6,99.8,50.1,99.8z M50.1,3.4C24.4,3.4,3.6,24.3,3.6,49.9c0,25.6,20.8,46.5,46.5,46.5c25.6,0,46.5-20.8,46.5-46.5
				C96.5,24.3,75.7,3.4,50.1,3.4z"/>
		</g>
		<g>
			<g>
				<path class="st0" d="M62.5,77.1H37.7c-8.2,0-14.8-6.6-14.8-14.8V37.5c0-8.2,6.6-14.8,14.8-14.8h24.8c8.2,0,14.8,6.6,14.8,14.8
					v24.8C77.3,70.5,70.6,77.1,62.5,77.1z M37.7,25.5c-6.6,0-12,5.4-12,12v24.8c0,6.6,5.4,12,12,12h24.8c6.6,0,12-5.4,12-12V37.5
					c0-6.6-5.4-12-12-12H37.7z"/>
			</g>
			<g>
				<path class="st0" d="M50.1,66.8c-9.3,0-16.9-7.6-16.9-16.9c0-9.3,7.6-16.9,16.9-16.9c9.3,0,16.9,7.6,16.9,16.9
					C66.9,59.2,59.4,66.8,50.1,66.8z M50.1,35.8c-7.8,0-14.1,6.3-14.1,14.1C36,57.7,42.3,64,50.1,64c7.8,0,14.1-6.3,14.1-14.1
					C64.2,42.1,57.8,35.8,50.1,35.8z"/>
			</g>
			<path class="st0" d="M69.3,33.9c0,1.4-1.1,2.5-2.5,2.5c-1.4,0-2.5-1.1-2.5-2.5c0-1.4,1.1-2.5,2.5-2.5
				C68.2,31.3,69.3,32.5,69.3,33.9z"/>
		</g>
	</g>
</g>
</svg>
