<?xml version="1.0" encoding="utf-8"?>
<!-- Generator: Adobe Illustrator 24.1.2, SVG Export Plug-In . SVG Version: 6.00 Build 0)  -->
<svg version="1.1" id="Слой_1" xmlns="http://www.w3.org/2000/svg" xmlns:xlink="http://www.w3.org/1999/xlink" x="0px" y="0px"
	 viewBox="0 0 100 100" style="enable-background:new 0 0 100 100;" xml:space="preserve">
<style type="text/css">
	.st0{fill:#FFFFFF;}
</style>
<g>
	<g>
		<g>
			<path class="st0" d="M50.1,100c-27.6,0-50-22.4-50-50c0-27.6,22.4-50,50-50s50,22.4,50,50C100.1,77.6,77.6,100,50.1,100z
				 M50.1,3.4C24.4,3.4,3.5,24.3,3.5,50c0,25.7,20.9,46.6,46.6,46.6S96.6,75.7,96.6,50C96.6,24.3,75.7,3.4,50.1,3.4z"/>
		</g>
		<path class="st0" d="M75.9,35.4c-0.3-2.3-2.1-4.1-4.3-4.2c-14.3-1.1-28.7-1.1-43,0c-2.3,0.2-4.1,2-4.3,4.2
			c-1.2,9.8-1.2,19.5,0,29.3c0.3,2.3,2.1,4.1,4.3,4.2c14.3,1.1,28.7,1.1,43,0c2.3-0.2,4.1-2,4.3-4.2C77.1,54.9,77.1,45.1,75.9,35.4z
			 M58.5,49.8l-12.9,7.4c-0.5,0.3-1.1-0.1-1.1-0.6V41.8c0-0.5,0.6-0.9,1.1-0.6l12.9,7.4C59,48.9,59,49.5,58.5,49.8z"/>
	</g>
	<g>
		<g>
			<path class="st0" d="M50.1,100c-27.6,0-50-22.4-50-50c0-27.6,22.4-50,50-50s50,22.4,50,50C100.1,77.6,77.6,100,50.1,100z
				 M50.1,3.4C24.4,3.4,3.5,24.3,3.5,50c0,25.7,20.9,46.6,46.6,46.6S96.6,75.7,96.6,50C96.6,24.3,75.7,3.4,50.1,3.4z"/>
		</g>
		<path class="st0" d="M75.9,35.4c-0.3-2.3-2.1-4.1-4.3-4.2c-14.3-1.1-28.7-1.1-43,0c-2.3,0.2-4.1,2-4.3,4.2
			c-1.2,9.8-1.2,19.5,0,29.3c0.3,2.3,2.1,4.1,4.3,4.2c14.3,1.1,28.7,1.1,43,0c2.3-0.2,4.1-2,4.3-4.2C77.1,54.9,77.1,45.1,75.9,35.4z
			 M58.5,49.8l-12.9,7.4c-0.5,0.3-1.1-0.1-1.1-0.6V41.8c0-0.5,0.6-0.9,1.1-0.6l12.9,7.4C59,48.9,59,49.5,58.5,49.8z"/>
	</g>
</g>
</svg>
