<?xml version="1.0" encoding="utf-8"?>
<!-- Generator: Adobe Illustrator 24.1.2, SVG Export Plug-In . SVG Version: 6.00 Build 0)  -->
<svg version="1.1" id="Слой_1" xmlns="http://www.w3.org/2000/svg" xmlns:xlink="http://www.w3.org/1999/xlink" x="0px" y="0px"
	 viewBox="0 0 215 125" style="enable-background:new 0 0 215 125;" xml:space="preserve">
<g>
	<rect x="71.2" y="98.4" width="70.4" height="1.1"/>
	<rect x="71.2" y="81.7" width="20.3" height="1.1"/>
	<g>
		<path d="M139.5,76.9h0.6v-5.3h1.3v-0.5h-3.2v0.5h1.3L139.5,76.9L139.5,76.9z M125.2,76.9h3.2v-0.5h-2.6v-2.1h2.5v-0.5h-2.5v-2.1
			h2.6v-0.5h-3.2V76.9z M111.7,76.9h3.2v-0.5h-2.6v-2.1h2.5v-0.5h-2.5v-2.1h2.6v-0.5h-3.2V76.9z M97.6,76.9h0.6v-5.3h1
			c1.4,0,1.7,0.7,1.7,1.3c0,1.3-1.4,1.3-1.7,1.3h-0.5l2,2.6h0.7l-1.6-2.2c1-0.1,1.7-0.8,1.7-1.7c0-0.5-0.1-1.9-2.3-1.9h-1.6
			L97.6,76.9L97.6,76.9z M85.8,76.9h0.6v-5.3h1.3v-0.5h-3.2v0.5h1.3L85.8,76.9L85.8,76.9z M71.4,75.3c0,1,0.8,1.7,1.8,1.7
			c1.2,0,1.8-0.9,1.8-1.7c0-1.3-1-1.5-1.7-1.7s-1.1-0.4-1.1-1c0-0.5,0.3-1.1,1-1.1c0.9,0,1.1,0.7,1.1,1h0.6c0-0.8-0.5-1.6-1.6-1.6
			c-1.2,0-1.7,0.9-1.7,1.6c0,1.3,1.3,1.4,2,1.7c0.3,0.1,0.8,0.3,0.8,1.1c0,0.6-0.4,1.2-1.2,1.2c-1.1,0-1.2-1-1.2-1.2H71.4z"/>
		<path d="M139.9,93.9h0.6v-5.4h1.4V88h-3.3v0.5h1.4L139.9,93.9L139.9,93.9z M132.5,89.5c-0.5-1-1.5-1.6-2.7-1.6
			c-1.7,0-3.1,1.3-3.1,3c0,1.8,1.4,3.1,3.1,3.1c1.2,0,2.2-0.6,2.7-1.6h-0.7c-0.5,0.8-1.3,1.1-2,1.1c-1.4,0-2.5-1.1-2.5-2.5
			s1-2.5,2.5-2.5c1.3,0,1.9,0.8,2,1.1L132.5,89.5L132.5,89.5z M116.1,88v3.6c0,1.7,0.8,2.4,2,2.4s2-0.7,2-2.4V88h-0.6v3.6
			c0,0.4,0,1.9-1.4,1.9s-1.4-1.5-1.4-1.9V88H116.1z M105.2,93.4v-4.8h1c2.3,0,2.8,1.5,2.8,2.4c0,1.2-0.8,2.4-2.8,2.4H105.2z
			 M104.6,93.9h1.7c2.4,0,3.4-1.5,3.4-3c0-1.2-0.6-3-3.4-3h-1.6L104.6,93.9L104.6,93.9z M94.9,93.5c-1.4,0-2.6-1-2.6-2.5
			s1.1-2.5,2.6-2.5c1.4,0,2.5,1,2.5,2.5C97.4,92.4,96.3,93.5,94.9,93.5 M94.9,87.9c-1.8,0-3.1,1.3-3.1,3.1c0,1.8,1.4,3,3.1,3
			c1.8,0,3.1-1.3,3.1-3.1C98,89.2,96.7,87.9,94.9,87.9 M81.6,93.9h0.6v-5.4h1.1c1.4,0,1.8,0.7,1.8,1.3c0,1.3-1.4,1.4-1.8,1.4h-0.5
			l2,2.7h0.7l-1.7-2.2c1.1-0.1,1.7-0.8,1.7-1.8c0-0.5-0.1-1.9-2.4-1.9h-1.7v5.9H81.6z M71.8,88.5h1.3c1.1,0,1.4,0.6,1.4,1.2
			s-0.4,1.2-1.4,1.2h-1.3V88.5z M71.2,93.9h0.6v-2.4h1.3c1.5,0,2-0.9,2-1.8c0-0.7-0.3-1.8-2-1.8h-1.9L71.2,93.9L71.2,93.9z"/>
		<path d="M130.8,48.5h1.5c2,0,3.6,0.7,3.6,3s-1.6,3-3.6,3h-1.5V48.5z M124.9,66.4h5.9v-7.7h2.3c5.5,0,8.7-2.7,8.7-7.1
			c0-5-3.2-7.2-9.9-7.2h-7V66.4z M98.5,66.4h15.9v-4.2h-10v-5h9.1V53h-9.1v-4.5h9.7v-4.2H98.6L98.5,66.4L98.5,66.4z M71.7,65.8
			c2,0.6,4.5,0.9,6.6,0.9c4.9,0,9.7-1.5,9.7-7.3c0-8-10.4-5.6-10.4-9.1c0-1.9,2.5-2.1,3.9-2.1c1.7,0,3.4,0.3,4.9,1l0.4-4.5
			c-1.5-0.5-3.6-0.8-5.7-0.8c-4.4,0-9.6,1.5-9.6,6.8c0,8,10.4,5.4,10.4,9.5c0,1.8-1.8,2.1-3.6,2.1c-2.4,0-4.5-0.6-6.1-1.5L71.7,65.8
			z"/>
		<path d="M132.7,110.3c0-2.1,0.8-3.9,2.8-3.9s2.8,1.8,2.8,3.9c0,2-0.8,3.9-2.8,3.9C133.5,114.2,132.7,112.3,132.7,110.3
			 M129.3,110.3c0,3.9,2.1,6.4,6.2,6.4c4,0,6.2-2.4,6.2-6.4c0-3.9-2.1-6.4-6.2-6.4S129.3,106.3,129.3,110.3 M123,116.4h3.3v-12.3
			H123V116.4z M111.3,106.6h1.3c2.4,0,3.8,1.3,3.8,3.7s-1.4,3.7-3.8,3.7h-1.3V106.6z M108,116.4h4.5c4.2,0,7.3-1.6,7.3-6.2
			c0-4.8-3-6.1-7.3-6.1H108V116.4z M104.9,104.1h-3.3v7.1c0,1.6-0.4,3-2.1,3s-2.1-1.4-2.1-3v-7.1h-3.3v7.6c0,3.4,2.2,4.9,5.4,4.9
			s5.4-1.5,5.4-4.9L104.9,104.1L104.9,104.1z M85.5,116.4h3.3v-9.9h3v-2.4h-9.3v2.4h3V116.4z M71.3,116.1c1.1,0.4,2.5,0.5,3.7,0.5
			c2.7,0,5.4-0.9,5.4-4.1c0-4.4-5.8-3.1-5.8-5.1c0-1.1,1.4-1.1,2.2-1.1c0.9,0,1.9,0.2,2.7,0.6l0.2-2.5c-0.8-0.3-2-0.5-3.2-0.5
			c-2.5,0-5.4,0.8-5.4,3.8c0,4.5,5.8,3,5.8,5.3c0,1-1,1.2-2,1.2c-1.4,0-2.5-0.4-3.4-0.8L71.3,116.1z"/>
	</g>
	<rect x="121.4" y="81.7" width="20.3" height="1.1"/>
	<path d="M71.2,40h70.4c-0.2-1.9-0.5-3.8-1-5.7L126,38.9l14.2-6.1c-0.6-1.9-1.3-3.7-2.2-5.4l-13.9,7.8l13.1-9.2
		c-1-1.7-2.1-3.3-3.3-4.9L121.4,32l11.4-12.1c-1.3-1.5-2.8-2.8-4.3-4.1l-10.4,13.6l9-14.6c-1.6-1.2-3.3-2.2-5.1-3.1l-7.6,15.7
		l6-16.5c-1.8-0.8-3.7-1.4-5.7-1.9l-4.3,16.9L113,8.6c-1.9-0.4-3.9-0.6-6-0.6l-0.9,17.7L105.2,8c-2,0.1-4,0.3-5.9,0.7l2.6,17.3
		L97.6,9c-2,0.5-3.8,1.2-5.6,2l5.9,16.1l-7.5-15.4c-1.8,0.9-3.5,2-5.1,3.1l8.8,14.3L84,16c-1.5,1.3-2.9,2.6-4.2,4.1l11.3,12
		L78.7,21.4c-1.2,1.5-2.3,3.2-3.2,4.9l12.9,9.1l-13.7-7.7c-0.9,1.7-1.6,3.5-2.1,5.4L86.2,39l-14-4.5C71.7,36.3,71.4,38.1,71.2,40"/>
	<path d="M113.5,82.5c0-1.1,0.4-2,1.4-2s1.4,0.9,1.4,2c0,1-0.4,2-1.4,2S113.5,83.6,113.5,82.5 M111.8,82.5c0,2,1.1,3.2,3.1,3.2
		s3.1-1.2,3.1-3.2s-1.1-3.2-3.1-3.2C112.8,79.4,111.8,80.6,111.8,82.5 M108.6,84.2c-0.5,0.2-1,0.3-1.5,0.3c-1.2,0-2.1-0.7-2.1-1.9
		c0-1.1,0.8-2,1.9-2c0.6,0,1.1,0.1,1.6,0.4l0.1-1.3c-0.6-0.2-1.2-0.3-1.8-0.3c-2,0-3.5,1.1-3.5,3.2c0,2.3,1.9,3.2,3.5,3.2
		c0.8,0,1.4-0.1,1.8-0.2V84.2z M95.5,85.6h4.4v-1.2h-2.8V83h2.6v-1.2h-2.6v-1.3h2.7v-1.2h-4.3L95.5,85.6L95.5,85.6z"/>
	<path d="M63.8,1.1H149v122.7H63.8C63.8,123.8,63.8,1.1,63.8,1.1z M62.7,0v1.1v122.7v1.1h1.1H149h1.1l0,0V0H62.7z"/>
</g>
</svg>
