<?xml version="1.0" encoding="utf-8"?>
<!-- Generator: Adobe Illustrator 24.1.2, SVG Export Plug-In . SVG Version: 6.00 Build 0)  -->
<svg version="1.1" id="Слой_1" xmlns="http://www.w3.org/2000/svg" xmlns:xlink="http://www.w3.org/1999/xlink" x="0px" y="0px"
	 viewBox="0 0 215 125" style="enable-background:new 0 0 215 125;" xml:space="preserve">
<style type="text/css">
	.st0{fill:#FFFFFF;}
	.st1{clip-path:url(#SVGID_2_);fill:#FFFFFF;}
	.st2{clip-path:url(#SVGID_4_);fill:#FFFFFF;}
	.st3{clip-path:url(#SVGID_6_);fill:#FFFFFF;}
	.st4{clip-path:url(#SVGID_8_);fill:#FFFFFF;}
	.st5{clip-path:url(#SVGID_10_);fill:#FFFFFF;}
	.st6{clip-path:url(#SVGID_12_);fill:#FFFFFF;}
	.st7{clip-path:url(#SVGID_14_);fill:#FFFFFF;}
	.st8{clip-path:url(#SVGID_16_);fill:#FFFFFF;}
	.st9{clip-path:url(#SVGID_18_);fill:#FFFFFF;}
	.st10{clip-path:url(#SVGID_20_);fill:#FFFFFF;}
	.st11{clip-path:url(#SVGID_22_);fill:#FFFFFF;}
	.st12{clip-path:url(#SVGID_24_);fill:#FFFFFF;}
	.st13{clip-path:url(#SVGID_26_);fill:#FFFFFF;}
	.st14{clip-path:url(#SVGID_28_);fill:#FFFFFF;}
	.st15{clip-path:url(#SVGID_30_);fill:#FFFFFF;}
	.st16{clip-path:url(#SVGID_32_);fill:#FFFFFF;}
	.st17{clip-path:url(#SVGID_34_);fill:#FFFFFF;}
	.st18{clip-path:url(#SVGID_36_);fill:#FFFFFF;}
	.st19{clip-path:url(#SVGID_38_);fill:#FFFFFF;}
	.st20{clip-path:url(#SVGID_40_);fill:#FFFFFF;}
	.st21{clip-path:url(#SVGID_42_);fill:#FFFFFF;}
	.st22{clip-path:url(#SVGID_44_);fill:#FFFFFF;}
	.st23{clip-path:url(#SVGID_46_);fill:#FFFFFF;}
	.st24{clip-path:url(#SVGID_48_);fill:#FFFFFF;}
	.st25{clip-path:url(#SVGID_50_);fill:#FFFFFF;}
	.st26{clip-path:url(#SVGID_52_);fill:#FFFFFF;}
</style>
<polygon class="st0" points="72.4,71.2 73,71.2 75.1,74.3 77.2,71.2 77.9,71.2 77.9,76.9 77.2,76.9 77.2,72.3 75.1,75.4 75.1,75.4 
	73,72.3 73,76.9 72.4,76.9 "/>
<g>
	<g>
		<defs>
			<rect id="SVGID_1_" x="63.8" y="0.1" width="87.4" height="124.9"/>
		</defs>
		<clipPath id="SVGID_2_">
			<use xlink:href="#SVGID_1_"  style="overflow:visible;"/>
		</clipPath>
		<path class="st1" d="M85,74.1c0-1.3-1-2.4-2.3-2.4s-2.3,1.1-2.3,2.4s1,2.4,2.3,2.4C84.1,76.4,85,75.4,85,74.1 M79.8,74.1
			c0-1.6,1.2-3,2.9-3c1.8,0,2.9,1.4,2.9,3s-1.2,3-2.9,3C81,77,79.8,75.7,79.8,74.1"/>
	</g>
	<g>
		<defs>
			<rect id="SVGID_3_" x="63.8" y="0.1" width="87.4" height="124.9"/>
		</defs>
		<clipPath id="SVGID_4_">
			<use xlink:href="#SVGID_3_"  style="overflow:visible;"/>
		</clipPath>
		<path class="st2" d="M87.6,74.1c0-1.6,1.2-3,2.9-3c1,0,1.7,0.4,2.2,0.9l-0.4,0.5c-0.5-0.5-1-0.8-1.8-0.8c-1.3,0-2.2,1-2.2,2.4
			c0,1.3,1,2.4,2.2,2.4c0.8,0,1.3-0.3,1.9-0.8l0.4,0.5c-0.6,0.6-1.3,1-2.3,1C88.8,77,87.6,75.7,87.6,74.1"/>
	</g>
</g>
<polygon class="st0" points="94.7,71.2 95.4,71.2 95.4,74.6 98.7,71.2 99.5,71.2 97.1,73.7 99.7,76.9 98.8,76.9 96.6,74.1 
	95.4,75.4 95.4,76.9 94.7,76.9 "/>
<g>
	<g>
		<defs>
			<rect id="SVGID_5_" x="63.8" y="0.1" width="87.4" height="124.9"/>
		</defs>
		<clipPath id="SVGID_6_">
			<use xlink:href="#SVGID_5_"  style="overflow:visible;"/>
		</clipPath>
		<path class="st3" d="M106.8,74.1c0-1.3-1-2.4-2.3-2.4s-2.3,1.1-2.3,2.4s1,2.4,2.3,2.4C105.9,76.4,106.8,75.4,106.8,74.1
			 M101.6,74.1c0-1.6,1.2-3,2.9-3c1.8,0,2.9,1.4,2.9,3s-1.2,3-2.9,3C102.8,77,101.6,75.7,101.6,74.1"/>
	</g>
	<g>
		<defs>
			<rect id="SVGID_7_" x="63.8" y="0.1" width="87.4" height="124.9"/>
		</defs>
		<clipPath id="SVGID_8_">
			<use xlink:href="#SVGID_7_"  style="overflow:visible;"/>
		</clipPath>
		<path class="st4" d="M112,76.4c0.9,0,1.4-0.4,1.4-1s-0.5-1-1.5-1h-1.8v2H112z M111.8,73.7c0.8,0,1.3-0.4,1.3-1s-0.5-0.9-1.3-0.9
			H110v2L111.8,73.7L111.8,73.7z M109.4,71.2h2.5c0.7,0,1.2,0.2,1.5,0.5c0.2,0.2,0.4,0.6,0.4,0.9c0,0.7-0.5,1.1-0.9,1.3
			c0.7,0.2,1.2,0.6,1.2,1.4c0,1-0.8,1.6-2.1,1.6h-2.6L109.4,71.2L109.4,71.2z"/>
	</g>
	<g>
		<defs>
			<rect id="SVGID_9_" x="63.8" y="0.1" width="87.4" height="124.9"/>
		</defs>
		<clipPath id="SVGID_10_">
			<use xlink:href="#SVGID_9_"  style="overflow:visible;"/>
		</clipPath>
		<path class="st5" d="M116,74.1c0-1.6,1.2-3,2.9-3c1,0,1.7,0.4,2.2,0.9l-0.4,0.5c-0.5-0.5-1-0.8-1.8-0.8c-1.3,0-2.2,1-2.2,2.4
			c0,1.3,1,2.4,2.2,2.4c0.8,0,1.3-0.3,1.9-0.8l0.4,0.5c-0.6,0.6-1.3,1-2.3,1C117.2,77,116,75.7,116,74.1"/>
	</g>
</g>
<polygon class="st0" points="123.1,71.2 123.8,71.2 123.8,74.6 127.1,71.2 127.9,71.2 125.4,73.7 128,76.9 127.2,76.9 125,74.1 
	123.8,75.4 123.8,76.9 123.1,76.9 "/>
<path class="st0" d="M134.2,74.8l-1.3-2.9l-1.3,2.9H134.2z M132.6,71.1h0.6l2.6,5.8h-0.7l-0.7-1.5h-3.1l-0.7,1.5h-0.7L132.6,71.1z"
	/>
<g>
	<g>
		<defs>
			<rect id="SVGID_11_" x="63.8" y="0.1" width="87.4" height="124.9"/>
		</defs>
		<clipPath id="SVGID_12_">
			<use xlink:href="#SVGID_11_"  style="overflow:visible;"/>
		</clipPath>
		<path class="st6" d="M141.9,74.2v-2.4h-1.8c-0.9,0-1.5,0.5-1.5,1.2s0.6,1.2,1.5,1.2C140.1,74.2,141.9,74.2,141.9,74.2z
			 M139.6,74.6c-0.9-0.2-1.6-0.7-1.6-1.7c0-0.4,0.2-0.9,0.4-1.2c0.4-0.4,0.9-0.6,1.7-0.6h2.5v5.8H142v-2.2h-1.7l-1.7,2.2h-0.8
			L139.6,74.6z"/>
	</g>
	<g>
		<defs>
			<rect id="SVGID_13_" x="63.8" y="0.1" width="87.4" height="124.9"/>
		</defs>
		<clipPath id="SVGID_14_">
			<use xlink:href="#SVGID_13_"  style="overflow:visible;"/>
		</clipPath>
		<path class="st7" d="M72.4,82.6c0-1.6,1.2-3,2.9-3c1,0,1.7,0.4,2.2,0.9L77.1,81c-0.5-0.5-1-0.8-1.8-0.8c-1.3,0-2.2,1-2.2,2.4
			c0,1.3,1,2.4,2.2,2.4c0.8,0,1.3-0.3,1.9-0.8l0.4,0.5c-0.6,0.6-1.3,1-2.3,1C73.6,85.6,72.4,84.3,72.4,82.6"/>
	</g>
</g>
<polygon class="st0" points="80.2,80.3 78.3,80.3 78.3,79.7 82.8,79.7 82.8,80.3 80.9,80.3 80.9,85.5 80.2,85.5 "/>
<g>
	<g>
		<defs>
			<rect id="SVGID_15_" x="63.8" y="0.1" width="87.4" height="124.9"/>
		</defs>
		<clipPath id="SVGID_16_">
			<use xlink:href="#SVGID_15_"  style="overflow:visible;"/>
		</clipPath>
		<path class="st8" d="M86.1,82.9c1,0,1.6-0.5,1.6-1.3s-0.6-1.3-1.5-1.3h-1.5v2.5h1.4V82.9z M84,79.7h2.2c1.3,0,2.2,0.7,2.2,1.8
			c0,1.2-1,1.9-2.3,1.9h-1.4v2h-0.6L84,79.7L84,79.7z"/>
	</g>
	<g>
		<defs>
			<rect id="SVGID_17_" x="63.8" y="0.1" width="87.4" height="124.9"/>
		</defs>
		<clipPath id="SVGID_18_">
			<use xlink:href="#SVGID_17_"  style="overflow:visible;"/>
		</clipPath>
		<path class="st9" d="M94.5,82.6c0-1.3-1-2.4-2.3-2.4s-2.3,1.1-2.3,2.4s1,2.4,2.3,2.4S94.5,83.9,94.5,82.6 M89.3,82.6
			c0-1.6,1.2-3,2.9-3c1.8,0,2.9,1.4,2.9,3s-1.2,3-2.9,3C90.4,85.6,89.3,84.2,89.3,82.6"/>
	</g>
</g>
<polygon class="st0" points="96.5,79.7 97.2,79.7 97.2,84.5 100.6,79.7 101.2,79.7 101.2,85.5 100.6,85.5 100.6,80.7 97.2,85.5 
	96.5,85.5 "/>
<polygon class="st0" points="104.4,80.3 102.5,80.3 102.5,79.7 107,79.7 107,80.3 105,80.3 105,85.5 104.4,85.5 "/>
<polygon class="st0" points="108.2,79.7 112.4,79.7 112.4,80.3 108.8,80.3 108.8,82.3 112,82.3 112,82.9 108.8,82.9 108.8,84.9 
	112.4,84.9 112.4,85.5 108.2,85.5 "/>
<g>
	<g>
		<defs>
			<rect id="SVGID_19_" x="63.8" y="0.1" width="87.4" height="124.9"/>
		</defs>
		<clipPath id="SVGID_20_">
			<use xlink:href="#SVGID_19_"  style="overflow:visible;"/>
		</clipPath>
		<path class="st10" d="M112.9,85.4l0.1-0.5c0.1,0,0.3,0.1,0.5,0.1c0.4,0,1.2-0.3,1.2-4.2v-1h3.7v5.8h-0.6v-5.2h-2.5V81
			c0,4-0.8,4.6-1.7,4.6C113.4,85.6,113,85.5,112.9,85.4"/>
	</g>
	<g>
		<defs>
			<rect id="SVGID_21_" x="63.8" y="0.1" width="87.4" height="124.9"/>
		</defs>
		<clipPath id="SVGID_22_">
			<use xlink:href="#SVGID_21_"  style="overflow:visible;"/>
		</clipPath>
		<path class="st11" d="M122.2,84.9c0.9,0,1.5-0.4,1.5-1.2c0-0.7-0.6-1.1-1.5-1.1h-1.5V85h1.5V84.9z M120.1,79.7h0.7V82h1.5
			c1.2,0,2.2,0.5,2.2,1.7c0,1.1-0.8,1.8-2.1,1.8h-2.2L120.1,79.7L120.1,79.7z"/>
	</g>
</g>
<polygon class="st0" points="125.6,79.7 126.2,79.7 126.2,82.3 129.6,82.3 129.6,79.7 130.2,79.7 130.2,85.5 129.6,85.5 129.6,82.9 
	126.2,82.9 126.2,85.5 125.6,85.5 "/>
<path class="st0" d="M135.6,83.4l-1.3-2.9l-1.3,2.9H135.6z M134,79.7h0.6l2.6,5.8h-0.7l-0.7-1.5h-3.1l-0.7,1.5h-0.7L134,79.7z"/>
<g>
	<g>
		<defs>
			<rect id="SVGID_23_" x="63.8" y="0.1" width="87.4" height="124.9"/>
		</defs>
		<clipPath id="SVGID_24_">
			<use xlink:href="#SVGID_23_"  style="overflow:visible;"/>
		</clipPath>
		<path class="st12" d="M142,82.7v-2.4h-1.8c-0.9,0-1.5,0.5-1.5,1.2s0.6,1.2,1.5,1.2C140.2,82.7,142,82.7,142,82.7z M139.7,83.2
			c-0.9-0.2-1.6-0.7-1.6-1.7c0-0.4,0.1-0.9,0.4-1.2c0.4-0.4,0.9-0.6,1.7-0.6h2.5v5.8h-0.6v-2.2h-1.7l-1.7,2.2h-0.8L139.7,83.2z"/>
	</g>
</g>
<polygon class="st0" points="72.4,88.3 73,88.3 73,91.7 76.3,88.3 77.2,88.3 74.7,90.8 77.3,94.1 76.4,94.1 74.2,91.3 73,92.5 
	73,94.1 72.4,94.1 "/>
<g>
	<g>
		<defs>
			<rect id="SVGID_25_" x="63.8" y="0.1" width="87.4" height="124.9"/>
		</defs>
		<clipPath id="SVGID_26_">
			<use xlink:href="#SVGID_25_"  style="overflow:visible;"/>
		</clipPath>
		<path class="st13" d="M86.7,91.2c0-1.3-1-2.4-2.3-2.4s-2.3,1.1-2.3,2.4s1,2.4,2.3,2.4S86.7,92.5,86.7,91.2 M81.5,91.2
			c0-1.6,1.2-3,2.9-3c1.8,0,2.9,1.4,2.9,3s-1.2,3-2.9,3C82.6,94.2,81.5,92.8,81.5,91.2"/>
	</g>
</g>
<polygon class="st0" points="91.6,88.3 92.2,88.3 94.3,91.4 96.4,88.3 97.1,88.3 97.1,94.1 96.4,94.1 96.4,89.4 94.3,92.5 
	94.3,92.5 92.2,89.4 92.2,94.1 91.6,94.1 "/>
<polygon class="st0" points="101.3,88.3 105.8,88.3 105.8,94.1 105.2,94.1 105.2,88.9 101.9,88.9 101.9,94.1 101.3,94.1 "/>
<path class="st0" d="M114.3,92l-1.3-2.9l-1.3,2.9H114.3z M112.7,88.3h0.6l2.6,5.8h-0.7l-0.7-1.5h-3.1l-0.7,1.5H110L112.7,88.3z"/>
<polygon class="st0" points="120.1,88.3 120.8,88.3 120.8,90.9 124.1,90.9 124.1,88.3 124.7,88.3 124.7,94.1 124.1,94.1 124.1,91.5 
	120.8,91.5 120.8,94.1 120.1,94.1 "/>
<polygon class="st0" points="128.9,88.3 129.6,88.3 129.6,93.1 133,88.3 133.7,88.3 133.7,94.1 133,94.1 133,89.3 129.6,94.1 
	128.9,94.1 "/>
<g>
	<g>
		<defs>
			<rect id="SVGID_27_" x="63.8" y="0.1" width="87.4" height="124.9"/>
		</defs>
		<clipPath id="SVGID_28_">
			<use xlink:href="#SVGID_27_"  style="overflow:visible;"/>
		</clipPath>
		<path class="st14" d="M142,91.3v-2.4h-1.8c-0.9,0-1.5,0.5-1.5,1.2s0.6,1.2,1.5,1.2C140.2,91.3,142,91.3,142,91.3z M139.7,91.8
			c-0.9-0.2-1.6-0.7-1.6-1.7c0-0.4,0.1-0.9,0.4-1.2c0.4-0.4,0.9-0.6,1.7-0.6h2.5v5.8h-0.6v-2.2h-1.7l-1.7,2.2h-0.8L139.7,91.8z"/>
	</g>
</g>
<polygon class="st0" points="72.4,44.7 77.5,44.7 83.3,53.9 89,44.7 94.2,44.7 94.2,66.5 89.4,66.5 89.4,52.3 83.3,61.6 83.1,61.6 
	77.1,52.4 77.1,66.5 72.4,66.5 "/>
<g>
	<g>
		<defs>
			<rect id="SVGID_29_" x="63.8" y="0.1" width="87.4" height="124.9"/>
		</defs>
		<clipPath id="SVGID_30_">
			<use xlink:href="#SVGID_29_"  style="overflow:visible;"/>
		</clipPath>
		<path class="st15" d="M98.8,55.6c0-6,4.5-10.9,11-10.9c4,0,6.2,1.5,8.2,3.4l-2.8,3.2c-1.6-1.5-3-2.3-5.4-2.3c-3.6,0-6.1,3-6.1,6.6
			s2.5,6.6,6.1,6.6c2.4,0,3.9-1,5.5-2.5l3,3.2c-2.2,2.3-4.6,3.6-8.6,3.6C103.4,66.5,98.8,61.7,98.8,55.6"/>
	</g>
</g>
<polygon class="st0" points="122.8,44.7 127.6,44.7 127.6,54.2 136.5,44.7 142.3,44.7 133.4,54 142.7,66.5 136.9,66.5 130.2,57.2 
	127.6,59.9 127.6,66.5 122.8,66.5 "/>
<polygon class="st0" points="77.5,40.1 82.4,40.1 80.4,33.6 "/>
<polygon class="st0" points="74.3,33.9 75.9,40.1 75.9,40.2 76,40.1 79.6,32.1 "/>
<polygon class="st0" points="84.8,40.1 93.1,40.1 89.5,32.2 "/>
<polygon class="st0" points="96.1,40.1 105.9,40.1 101.1,32.4 "/>
<polygon class="st0" points="106.9,16.5 99.6,20.9 106.8,22.3 "/>
<g>
	<g>
		<defs>
			<rect id="SVGID_31_" x="63.8" y="0.1" width="87.4" height="124.9"/>
		</defs>
		<clipPath id="SVGID_32_">
			<use xlink:href="#SVGID_31_"  style="overflow:visible;"/>
		</clipPath>
		<path class="st16" d="M78.4,24c-1.8,2.6-3.2,5.5-4.3,8.5l5.5-1.8L78.4,24z"/>
	</g>
</g>
<polygon class="st0" points="106.9,14.5 106.9,9.7 99.5,13.5 "/>
<g>
	<g>
		<defs>
			<rect id="SVGID_33_" x="63.8" y="0.1" width="87.4" height="124.9"/>
		</defs>
		<clipPath id="SVGID_34_">
			<use xlink:href="#SVGID_33_"  style="overflow:visible;"/>
		</clipPath>
		<path class="st17" d="M72.4,40.1h2.1l-1.2-4.9C72.8,36.8,72.5,38.4,72.4,40.1"/>
	</g>
	<g>
		<defs>
			<rect id="SVGID_35_" x="63.8" y="0.1" width="87.4" height="124.9"/>
		</defs>
		<clipPath id="SVGID_36_">
			<use xlink:href="#SVGID_35_"  style="overflow:visible;"/>
		</clipPath>
		<path class="st18" d="M106.2,8.5c-2.9,0.1-5.7,0.6-8.4,1.4l0.1,2.8L106.2,8.5z"/>
	</g>
	<g>
		<defs>
			<rect id="SVGID_37_" x="63.8" y="0.1" width="87.4" height="124.9"/>
		</defs>
		<clipPath id="SVGID_38_">
			<use xlink:href="#SVGID_37_"  style="overflow:visible;"/>
		</clipPath>
		<path class="st19" d="M96.5,10.3c-2.2,0.7-4.4,1.7-6.4,2.8h6.5L96.5,10.3z"/>
	</g>
	<g>
		<defs>
			<rect id="SVGID_39_" x="63.8" y="0.1" width="87.4" height="124.9"/>
		</defs>
		<clipPath id="SVGID_40_">
			<use xlink:href="#SVGID_39_"  style="overflow:visible;"/>
		</clipPath>
		<path class="st20" d="M87.4,14.9c-2.8,2-5.3,4.3-7.5,7l7.6-1.5L87.4,14.9z"/>
	</g>
</g>
<polygon class="st0" points="88.8,30 87.8,22.8 82.3,30.2 "/>
<polygon class="st0" points="95.2,14.5 88.8,14.5 88.9,19.7 "/>
<polygon class="st0" points="90,29.1 96.3,21.8 89,21.7 "/>
<polygon class="st0" points="106.3,23.6 98.6,22.1 101.4,29.8 "/>
<polygon class="st0" points="90.6,31.4 94.5,39.9 99.9,31.8 "/>
<polygon class="st0" points="100.1,30.4 97.4,22.6 91,30.1 "/>
<polygon class="st0" points="86.7,22 79.6,23.3 80.8,30 "/>
<polygon class="st0" points="98.2,20.2 105.5,15.7 98,14.6 "/>
<polygon class="st0" points="96.8,20.5 96.6,15.1 90.2,20.3 "/>
<polygon class="st0" points="81.3,31.6 81.3,31.7 81.2,31.8 83.6,39.3 88.4,31.4 "/>
<polygon class="st0" points="107.5,40.1 112.7,31.9 107.5,31.9 102.4,31.9 107.5,40.1 107.5,40.1 107.5,40.1 "/>
<polygon class="st0" points="132.6,40.1 137.6,40.1 134.6,33.6 "/>
<polygon class="st0" points="135.5,32.1 139.1,40.1 139.1,40.2 139.1,40.1 140.7,33.9 "/>
<polygon class="st0" points="122,40.1 130.3,40.1 125.6,32.2 "/>
<polygon class="st0" points="109.1,40.1 119,40.1 113.9,32.4 "/>
<polygon class="st0" points="108.2,22.3 115.4,20.9 108.2,16.5 "/>
<g>
	<g>
		<defs>
			<rect id="SVGID_41_" x="63.8" y="0.1" width="87.4" height="124.9"/>
		</defs>
		<clipPath id="SVGID_42_">
			<use xlink:href="#SVGID_41_"  style="overflow:visible;"/>
		</clipPath>
		<path class="st21" d="M136.7,24l-1.2,6.7l5.5,1.8C139.9,29.5,138.5,26.6,136.7,24"/>
	</g>
</g>
<polygon class="st0" points="115.5,13.5 108.2,9.7 108.2,14.5 "/>
<g>
	<g>
		<defs>
			<rect id="SVGID_43_" x="63.8" y="0.1" width="87.4" height="124.9"/>
		</defs>
		<clipPath id="SVGID_44_">
			<use xlink:href="#SVGID_43_"  style="overflow:visible;"/>
		</clipPath>
		<path class="st22" d="M141.8,35.2l-1.2,4.9h2.1C142.5,38.4,142.2,36.8,141.8,35.2"/>
	</g>
	<g>
		<defs>
			<rect id="SVGID_45_" x="63.8" y="0.1" width="87.4" height="124.9"/>
		</defs>
		<clipPath id="SVGID_46_">
			<use xlink:href="#SVGID_45_"  style="overflow:visible;"/>
		</clipPath>
		<path class="st23" d="M117.2,9.9c-2.7-0.8-5.5-1.2-8.4-1.4l8.3,4.2L117.2,9.9z"/>
	</g>
	<g>
		<defs>
			<rect id="SVGID_47_" x="63.8" y="0.1" width="87.4" height="124.9"/>
		</defs>
		<clipPath id="SVGID_48_">
			<use xlink:href="#SVGID_47_"  style="overflow:visible;"/>
		</clipPath>
		<path class="st24" d="M118.6,10.3l-0.1,2.8h6.5C122.9,12,120.8,11.1,118.6,10.3"/>
	</g>
	<g>
		<defs>
			<rect id="SVGID_49_" x="63.8" y="0.1" width="87.4" height="124.9"/>
		</defs>
		<clipPath id="SVGID_50_">
			<use xlink:href="#SVGID_49_"  style="overflow:visible;"/>
		</clipPath>
		<path class="st25" d="M127.6,14.9l-0.1,5.5l7.6,1.5C133,19.2,130.5,16.8,127.6,14.9"/>
	</g>
</g>
<polygon class="st0" points="132.7,30.2 127.3,22.8 126.3,30 "/>
<polygon class="st0" points="126.2,19.7 126.3,14.5 119.9,14.5 "/>
<polygon class="st0" points="125,29.1 126.1,21.7 118.8,21.8 "/>
<polygon class="st0" points="116.4,22.1 108.8,23.6 113.7,29.8 "/>
<polygon class="st0" points="115.2,31.8 120.5,39.9 124.4,31.4 "/>
<polygon class="st0" points="124,30.1 117.7,22.6 114.9,30.4 "/>
<polygon class="st0" points="134.2,30 135.4,23.3 128.4,22 "/>
<polygon class="st0" points="117,14.6 109.5,15.7 116.9,20.2 "/>
<polygon class="st0" points="118.4,15.1 118.2,20.5 124.8,20.3 "/>
<polygon class="st0" points="133.8,31.7 133.7,31.6 126.7,31.4 131.4,39.3 133.8,31.8 "/>
<polygon class="st0" points="107.5,24.2 102.5,30.5 107.5,30.5 107.5,30.5 107.5,30.5 112.5,30.5 107.5,24.2 107.5,24.2 107.5,24.2 
	"/>
<g>
	<g>
		<defs>
			<rect id="SVGID_51_" x="63.8" y="0.1" width="87.4" height="124.9"/>
		</defs>
		<clipPath id="SVGID_52_">
			<use xlink:href="#SVGID_51_"  style="overflow:visible;"/>
		</clipPath>
		<path class="st26" d="M137.4,111.7h-3.1l1.6-4.8l0,0L137.4,111.7z M129.3,116.6h3.3l1-2.6h4.6l0.9,2.6h3.6l-4.7-12.2h-4
			L129.3,116.6z M117.7,116.6h3.3v-9.9h3.9v9.9h3.3v-12.2h-10.4v12.2H117.7z M105.1,116.6h3.3v-9.9h3.9v9.9h3.3v-12.2h-10.4v12.2
			H105.1z M95.3,116.6h3.4l5-12.2H100l-2,6.4l-2.7-6.4h-3.7l4.9,9.6L95.3,116.6z M85.2,106.7H86c1.1,0,2,0.4,2,1.6
			c0,1.3-0.9,1.7-2,1.7h-0.8V106.7z M81.9,116.6h3.3v-4.3h1.3c3,0,4.9-1.5,4.9-3.9c0-2.8-1.8-4-5.5-4H82v12.2H81.9z M72.4,116.6h3.3
			v-9.9h5v-2.3h-8.3V116.6z"/>
	</g>
</g>
<rect x="72.4" y="98.7" class="st0" width="70.3" height="1.1"/>
<path class="st0" d="M64.9,1.3H150v122.6H64.9L64.9,1.3L64.9,1.3z M63.8,0.1v1.1v122.6v1.1h1.1H150h1.1l0,0V0.1H63.8z"/>
</svg>
