<?xml version="1.0" encoding="utf-8"?>
<!-- Generator: Adobe Illustrator 24.1.2, SVG Export Plug-In . SVG Version: 6.00 Build 0)  -->
<svg version="1.1" id="Слой_1" xmlns="http://www.w3.org/2000/svg" xmlns:xlink="http://www.w3.org/1999/xlink" x="0px" y="0px"
	 viewBox="0 0 215 125" style="enable-background:new 0 0 215 125;" xml:space="preserve">
<style type="text/css">
	.st0{fill:#FFFFFF;}
</style>
<polygon class="st0" points="71.1,34.2 71.1,72.8 58.4,72.8 58.4,39.2 60.9,39.5 47.9,72.8 34.8,72.8 21.8,39.7 24.2,39.3 
	24.2,72.8 11.6,72.8 11.6,34.2 32.1,34.2 43.7,65.7 39.1,65.7 50.5,34.2 "/>
<g>
	<path class="st0" d="M90,55.1c0,1.4,0.2,2.6,0.7,3.6c0.5,1,1.3,1.8,2.3,2.3c1,0.6,2.3,0.8,4,0.8c1.6,0,3-0.3,4-0.8
		c1-0.5,1.8-1.3,2.3-2.3c0.5-1,0.7-2.2,0.7-3.7V34.2h13.3v21.6c0,3.6-0.8,6.7-2.5,9.4c-1.7,2.7-4,4.8-7.1,6.3
		c-3,1.5-6.6,2.2-10.7,2.2c-4.1,0-7.6-0.7-10.6-2.2c-3-1.5-5.4-3.6-7.1-6.3c-1.7-2.7-2.5-5.8-2.5-9.4V34.2H90V55.1z"/>
	<polygon class="st0" points="147.7,66.7 142.3,66.7 156,34.2 169.9,34.2 152.4,72.8 137.3,72.8 119.8,34.2 134,34.2 	"/>
	<path class="st0" d="M197.5,34.2l16.9,38.6h-14.2l-13.3-32.7h3.4L177,72.8h-14.2l16.9-38.6H197.5z M175.2,55.8h26.3v10.6h-26.3
		V55.8z"/>
	<path class="st0" d="M15.3,93.6h-3.7V81.3h3.7v0l6,0c0.2,0,0.4,0,0.6,0c0,0,0.1,0,0.1,0c0.2,0,0.4,0,0.6,0.1c0,0,0.1,0,0.1,0
		c0.6,0.1,1.2,0.2,1.7,0.4c0,0,0.1,0,0.1,0c0.2,0.1,0.3,0.1,0.4,0.2c0,0,0.1,0,0.1,0c0.6,0.3,1.1,0.7,1.4,1.1c0,0,0,0.1,0.1,0.1
		c0.1,0.1,0.2,0.2,0.2,0.3c0,0,0,0,0,0.1c0.2,0.4,0.4,0.8,0.5,1.3c0,0,0,0.1,0,0.1c0,0.1,0,0.3,0.1,0.5c0,0,0,0.1,0,0.1
		c0,0.2,0,0.3,0,0.5l0,3.2c0,0,0,0,0,0c0,0.2,0,0.4-0.1,0.5c0,0,0,0,0,0.1c0,0.2-0.1,0.3-0.1,0.5c0,0,0,0.1,0,0.1
		c0,0.1-0.1,0.3-0.2,0.4c0,0,0,0.1,0,0.1c-0.1,0.1-0.1,0.2-0.2,0.4c0,0-0.1,0.1-0.1,0.1c-0.1,0.1-0.1,0.2-0.2,0.3
		c0,0.1-0.1,0.1-0.1,0.2c-0.1,0.1-0.1,0.1-0.2,0.2c-0.1,0.1-0.2,0.1-0.3,0.2c0,0-0.1,0.1-0.1,0.1c-1.1,0.8-2.6,1.2-4.7,1.1
		L15.3,93.6L15.3,93.6z M20.5,84.2l-5.2,0v6.5h5.1c1.1,0,1.9-0.2,2.5-0.6c0,0,0.1,0,0.1-0.1c0,0,0.1-0.1,0.1-0.1
		c0,0,0.1-0.1,0.1-0.1c0,0,0.1-0.1,0.1-0.1c0,0,0.1-0.1,0.1-0.2c0,0,0,0,0-0.1c0-0.1,0.1-0.1,0.1-0.2c0,0,0,0,0-0.1
		c0-0.1,0.1-0.1,0.1-0.2c0,0,0,0,0,0c0-0.1,0-0.2,0.1-0.3c0,0,0,0,0,0c0-0.1,0-0.2,0-0.3c0,0,0,0,0,0l0-1.7c0-0.1,0-0.2,0-0.3
		c0,0,0,0,0-0.1c0-0.1,0-0.2,0-0.2c0,0,0,0,0,0c-0.1-0.2-0.1-0.5-0.3-0.7c0,0,0,0,0,0c0-0.1-0.1-0.1-0.1-0.2c0,0,0,0,0,0
		c-0.2-0.2-0.5-0.4-0.8-0.6c0,0,0,0-0.1,0c-0.1,0-0.2-0.1-0.2-0.1c0,0,0,0,0,0c-0.3-0.1-0.6-0.2-0.9-0.2c0,0,0,0,0,0
		c-0.1,0-0.2,0-0.3,0c0,0-0.1,0-0.1,0C20.7,84.2,20.6,84.2,20.5,84.2L20.5,84.2z"/>
	<polygon class="st0" points="30.7,93.6 30.7,81.3 44.8,81.3 44.8,83.9 34.4,83.9 34.4,86.2 44,86.2 44,88.7 38.9,88.7 34.4,88.7 
		34.4,91.1 44.8,91.1 44.8,93.6 	"/>
	<polygon class="st0" points="61.2,81.3 65.2,81.3 58.6,93.6 53.4,93.6 46.8,81.3 50.8,81.3 56,91.1 	"/>
	<polygon class="st0" points="67.6,93.6 67.6,81.3 81.7,81.3 81.7,83.9 71.3,83.9 71.3,86.2 80.9,86.2 80.9,88.7 75.8,88.7 
		71.3,88.7 71.3,91.1 81.7,91.1 81.7,93.6 	"/>
	<polygon class="st0" points="99,91.1 99,93.6 84.9,93.6 84.9,81.3 88.6,81.3 88.6,91.1 	"/>
	<path class="st0" d="M116.9,85.7C116.9,85.7,116.9,85.7,116.9,85.7l0,3.2c0,0.2,0,0.3,0,0.5c0,0,0,0.1,0,0.1c0,0.2,0,0.3-0.1,0.4
		c0,0,0,0.1,0,0.1c-0.1,0.5-0.3,0.9-0.5,1.3c0,0,0,0,0,0.1c-0.1,0.1-0.1,0.2-0.2,0.3c0,0,0,0.1-0.1,0.1c-0.4,0.5-0.9,0.8-1.4,1.1
		c0,0-0.1,0-0.1,0c-0.1,0.1-0.3,0.1-0.4,0.2c0,0-0.1,0-0.1,0c-0.5,0.2-1,0.3-1.7,0.4c0,0-0.1,0-0.1,0c-0.2,0-0.4,0-0.6,0
		c0,0-0.1,0-0.1,0c-0.2,0-0.4,0-0.7,0h-3.4c-2.1,0-3.6-0.4-4.7-1.1c-0.1,0-0.1-0.1-0.1-0.1c-0.1-0.1-0.2-0.1-0.3-0.2
		c-0.1-0.1-0.1-0.1-0.2-0.2c-0.1-0.1-0.1-0.1-0.2-0.2c-0.1-0.1-0.1-0.2-0.2-0.3c0,0-0.1-0.1-0.1-0.1c-0.1-0.1-0.1-0.2-0.2-0.4
		c0,0,0-0.1,0-0.1c-0.1-0.1-0.1-0.3-0.2-0.4c0,0,0-0.1,0-0.1c0-0.2-0.1-0.3-0.1-0.5c0,0,0,0,0-0.1c0-0.2,0-0.4-0.1-0.5c0,0,0,0,0,0
		l0-3.2c0-0.2,0-0.3,0-0.5c0,0,0-0.1,0-0.1c0-0.2,0-0.3,0.1-0.5c0,0,0-0.1,0-0.1c0.1-0.5,0.3-0.9,0.5-1.3c0,0,0,0,0-0.1
		c0.1-0.1,0.1-0.2,0.2-0.3c0,0,0-0.1,0.1-0.1c0.4-0.5,0.9-0.8,1.4-1.1c0,0,0.1,0,0.1,0c0.1-0.1,0.3-0.1,0.4-0.2c0,0,0.1,0,0.1,0
		c0.5-0.2,1-0.3,1.7-0.4c0,0,0.1,0,0.1,0c0.2,0,0.4,0,0.6-0.1c0,0,0.1,0,0.1,0c0.2,0,0.4,0,0.7,0l3.4,0v0c2.1,0,3.6,0.4,4.7,1.1
		c0.1,0,0.1,0.1,0.1,0.1c0.1,0.1,0.2,0.1,0.3,0.2c0.1,0.1,0.1,0.1,0.2,0.2c0.1,0.1,0.1,0.1,0.2,0.2c0.1,0.1,0.1,0.2,0.2,0.3
		c0,0,0.1,0.1,0.1,0.1c0.1,0.1,0.1,0.2,0.2,0.4c0,0,0,0.1,0,0.1c0.1,0.1,0.1,0.3,0.2,0.4c0,0,0,0.1,0,0.1c0,0.2,0.1,0.3,0.1,0.5
		c0,0,0,0,0,0.1C116.9,85.3,116.9,85.5,116.9,85.7L116.9,85.7z M113.2,88.5c0-0.1,0-0.2,0-0.3l0-1.7c0,0,0,0,0,0c0-0.1,0-0.2,0-0.3
		c0,0,0,0,0,0c0-0.1,0-0.2-0.1-0.3c0,0,0,0,0,0c0-0.1-0.1-0.2-0.1-0.2c0,0,0,0,0-0.1c0-0.1-0.1-0.1-0.1-0.2c0,0,0,0,0-0.1
		c0-0.1-0.1-0.1-0.1-0.2c0,0-0.1-0.1-0.1-0.1c0,0-0.1-0.1-0.1-0.1c0,0-0.1-0.1-0.1-0.1c0,0-0.1,0-0.1-0.1c-0.6-0.4-1.4-0.6-2.5-0.6
		v0l-1.8,0c-0.1,0-0.2,0-0.3,0c0,0-0.1,0-0.1,0c-0.1,0-0.2,0-0.3,0c0,0,0,0,0,0c-0.3,0-0.6,0.1-0.9,0.2c0,0,0,0,0,0
		c-0.1,0-0.2,0.1-0.2,0.1c0,0,0,0-0.1,0c-0.3,0.2-0.6,0.3-0.8,0.6c0,0,0,0,0,0c0,0.1-0.1,0.1-0.1,0.2c0,0,0,0,0,0
		c-0.1,0.2-0.2,0.4-0.3,0.7c0,0,0,0,0,0c0,0.1,0,0.2,0,0.2c0,0,0,0,0,0.1c0,0.1,0,0.2,0,0.3l0,1.7c0,0,0,0,0,0c0,0.1,0,0.2,0,0.3
		c0,0,0,0,0,0c0,0.1,0,0.2,0.1,0.3c0,0,0,0,0,0c0,0.1,0,0.2,0.1,0.2c0,0,0,0,0,0.1c0,0.1,0.1,0.1,0.1,0.2c0,0,0,0,0,0.1
		c0,0.1,0.1,0.1,0.1,0.2c0,0,0.1,0.1,0.1,0.1c0,0,0.1,0.1,0.1,0.1c0,0,0.1,0.1,0.1,0.1c0,0,0.1,0,0.1,0.1c0.6,0.4,1.4,0.6,2.5,0.6
		h1.8c0.1,0,0.2,0,0.3,0c0,0,0.1,0,0.1,0c0.1,0,0.2,0,0.3,0c0,0,0,0,0,0c0.3,0,0.6-0.1,0.9-0.2c0,0,0,0,0,0c0.1,0,0.2-0.1,0.2-0.1
		c0,0,0,0,0.1,0c0.3-0.2,0.6-0.3,0.8-0.6c0,0,0,0,0,0c0-0.1,0.1-0.1,0.1-0.2c0,0,0,0,0,0c0.1-0.2,0.2-0.4,0.3-0.7c0,0,0,0,0,0
		C113.2,88.7,113.2,88.6,113.2,88.5C113.2,88.5,113.2,88.5,113.2,88.5L113.2,88.5z"/>
	<path class="st0" d="M135.4,84.4L135.4,84.4l0,2.3c0,0.1,0,0.2,0,0.3c0,0,0,0.1,0,0.1c0,0.1,0,0.2,0,0.3c0,0,0,0,0,0.1
		c-0.1,0.3-0.2,0.6-0.3,0.9c0,0,0,0,0,0c0,0.1-0.1,0.2-0.2,0.2c0,0,0,0,0,0.1c-0.3,0.3-0.6,0.6-1,0.8c0,0,0,0-0.1,0
		c-0.1,0-0.2,0.1-0.3,0.1c0,0,0,0-0.1,0c-0.3,0.1-0.7,0.2-1.2,0.3c0,0,0,0-0.1,0c-0.1,0-0.3,0-0.4,0c0,0-0.1,0-0.1,0
		c-0.2,0-0.3,0-0.5,0h-0.4v0h-6.8v3.6h-3.7V81.3h2.3v0h8.3v0h0.3v0c1.5,0,2.6,0.3,3.3,0.8c0,0,0.1,0.1,0.1,0.1
		c0.1,0.1,0.1,0.1,0.2,0.2c0.1,0,0.1,0.1,0.1,0.2c0,0,0.1,0.1,0.1,0.1c0.1,0.1,0.1,0.1,0.1,0.2c0,0,0,0.1,0.1,0.1
		c0,0.1,0.1,0.2,0.1,0.3c0,0,0,0,0,0.1c0,0.1,0.1,0.2,0.1,0.3c0,0,0,0,0,0.1c0,0.1,0.1,0.2,0.1,0.3c0,0,0,0,0,0
		C135.4,84.1,135.4,84.3,135.4,84.4z M132.2,86.2c0,0,0-0.1,0-0.1l0-0.9v0c0-0.1,0-0.1,0-0.2c0,0,0,0,0,0c0,0,0-0.1,0-0.1
		c0,0,0,0,0,0c0,0,0-0.1,0-0.1c0,0,0,0,0,0c0,0,0-0.1-0.1-0.1c0,0,0,0,0,0c0,0,0-0.1-0.1-0.1c0,0,0,0,0-0.1c0,0,0,0-0.1-0.1
		c0,0-0.1,0-0.1-0.1c0,0,0,0,0,0c-0.3-0.2-0.8-0.3-1.4-0.3v0l-0.5,0v0h-6v3.6h6h0.5c0.1,0,0.1,0,0.2,0c0,0,0,0,0,0
		c0.1,0,0.1,0,0.2,0c0,0,0,0,0,0c0.2,0,0.3-0.1,0.5-0.1c0,0,0,0,0,0c0,0,0.1,0,0.1-0.1c0,0,0,0,0,0c0.2-0.1,0.3-0.2,0.4-0.3
		c0,0,0,0,0,0c0,0,0-0.1,0.1-0.1c0,0,0,0,0,0c0.1-0.1,0.1-0.2,0.1-0.4c0,0,0,0,0,0C132.2,86.3,132.2,86.3,132.2,86.2
		C132.2,86.2,132.2,86.2,132.2,86.2z"/>
	<polygon class="st0" points="158.3,81.3 158.3,93.6 154.6,93.6 154.6,84.5 150.4,92.4 149.7,93.6 149.7,93.6 148.4,93.6 
		147.1,93.6 147.1,93.6 146.4,92.4 142.2,84.5 142.2,93.6 138.4,93.6 138.4,81.3 144.4,81.3 148.4,88.7 152.3,81.3 	"/>
	<polygon class="st0" points="161.9,93.6 161.9,81.3 176,81.3 176,83.9 165.6,83.9 165.6,86.2 175.2,86.2 175.2,88.7 170.1,88.7 
		165.6,88.7 165.6,91.1 176,91.1 176,93.6 	"/>
	<polygon class="st0" points="192.7,81.3 196.5,81.3 196.5,93.6 192.7,93.6 192.7,93.6 190,93.6 182.9,83.1 182.9,93.6 179.2,93.6 
		179.2,81.3 185.7,81.3 192.7,91.8 	"/>
	<polygon class="st0" points="199,81.3 214.4,81.3 214.4,83.9 208.6,83.9 208.6,93.6 204.8,93.6 204.8,83.9 199,83.9 	"/>
</g>
</svg>
