<?xml version="1.0" encoding="utf-8"?>
<!-- Generator: Adobe Illustrator 24.1.2, SVG Export Plug-In . SVG Version: 6.00 Build 0)  -->
<svg version="1.1" id="Слой_1" xmlns="http://www.w3.org/2000/svg" xmlns:xlink="http://www.w3.org/1999/xlink" x="0px" y="0px"
	 viewBox="0 0 609.4 354.3" style="enable-background:new 0 0 609.4 354.3;" xml:space="preserve">
<style type="text/css">
	.st0{fill:#FFFFFF;}
</style>
<path class="st0" d="M365.7,126.6c-7.3,2.2-12.6,6.2-16.7,11.7c-3.1,4.1-5.2,8.6-6.9,13.4c-2.7,8.2-3.8,16.6-4.1,25.2
	c12.7-1,22.2-8.5,26-20.1c2.3-7.1,2.9-14.5,2.4-21.9C366.3,132.2,366,129.6,365.7,126.6 M298.7,98.1v80.6h20.9
	c2.4-28.7,14.3-50.2,44.2-58.3c-0.4-1.1-0.8-2.3-1.3-3.5c-4-8.4-11.1-13-19.7-15.7c-6.4-2-13-2.9-19.7-3.1
	C315,98,307,98.1,298.7,98.1 M298.7,89.3c1,0.1,1.8,0.2,2.6,0.2c8,0,16,0.1,23.9-0.2c4.1-0.1,8.2-0.6,12.2-1.5
	c12.4-2.8,20.3-10.4,23-22.9c2.2-10.1,2-20.3-0.6-30.3c-2.5-9.6-8.4-16-18.1-18.7c-5.3-1.5-10.7-2.5-16.3-2.6
	c-8.1-0.2-16.2-0.1-24.3-0.1c-0.8,0-1.6,0.2-2.4,0.3V89.3z M381.1,194.9h47.7c0.1,0.7,0.3,1.4,0.3,2.2c0.1,0.8,0,1.6,0,2.6
	c-1.3,0.3-2.4,0.6-3.5,0.8c-2.9,0.5-4.6,2.3-5.1,5.1c-0.4,2.1-0.7,4.2-0.7,6.3c-0.1,6.3,0,12.7-0.1,19c0,1.2,0,2.3,0,3.4
	c-2.5,0.7-2.5,0.7-6.8-3c-0.9,0.5-1.9,1-2.8,1.6c-7.8,4.7-16.1,8.2-25.1,9.6c-12.1,1.9-24,1.2-35.1-4.1c-16.5-7.8-25.2-21.5-28.6-39
	c-0.8-3.9-1.1-7.9-1.7-12.1h-65v-8.2c1.1-0.1,2.4-0.1,3.6-0.2c2.7-0.3,5.4-0.4,8-0.9c4.3-0.7,6.9-3.3,7.7-7.6
	c0.4-2.1,0.7-4.2,0.8-6.3c0.2-2.8,0.2-5.6,0.2-8.5c0-39.9,0-79.9,0-119.8c0-4.7-0.4-9.4-0.9-14c-0.5-4.7-3.3-7.4-8-8
	c-3.7-0.5-7.4-0.8-11.4-1.2V4.4c1.2-0.1,2.4-0.2,3.5-0.2c21.7,0,43.5-0.1,65.2,0c11.9,0.1,23.7,1.1,34.9,5.3
	c16.6,6.2,25.6,18.6,26.4,36.2c0.2,5.2,0.1,10.3-1,15.4c-2.3,10.1-7.9,17.9-16.5,23.6c-5.8,3.8-12.3,6.2-19,8
	c-0.7,0.2-1.5,0.5-2.6,0.9c5,1.5,9.6,2.6,14.1,4.2c6.7,2.3,13,5.3,18.6,9.8c3.8,3,6.9,6.7,9.3,10.9c0.6,1.1,1.2,2.2,2.7,2.5
	c7.1,1.4,13.6,4.3,19.8,7.9c0.4,0.2,0.8,0.4,1.3,0.5c0.1,0,0.2-0.1,0.6-0.2c0.6-2.3,1.3-4.8,1.9-7.3h4c-0.2,12.3-0.4,24.7-0.5,37.2
	c-0.3,0.1-0.8,0.3-1.2,0.3c-0.8,0-1.6-0.1-2.6-0.2c-0.4-2.6-0.7-5.1-1.2-7.6c-2.4-11.4-8.7-19.6-19.6-24c-0.3-0.1-0.7-0.1-1.3-0.2
	c0.2,1.9,0.4,3.7,0.7,5.5c1,6.8,0.4,13.6-1.4,20.2c-4.3,15.9-14.7,25.8-30.3,30.4c-6.1,1.8-12.4,2.6-18.7,3c-1,0.1-2,0.2-3.5,0.3
	c0.5,4.4,0.9,8.6,1.5,12.8c0.9,6.1,2.6,11.9,5.4,17.4c6.6,13,17.2,19.9,31.7,20.3c4.3,0.1,8.7-0.1,13-0.8c9.2-1.5,14-6.9,14.6-16.3
	c0.2-3.8,0-7.8-0.4-11.6c-0.5-4.9-2.1-6.6-7-7.3c-4.2-0.6-8.4-0.9-12.6-1.3c-0.9-0.1-1.8-0.1-3-0.2V194.9z"/>
<path class="st0" d="M90,325.5c1.4,0,2.6,0,3.7,0c1.6,0,3.3,0,4.9-0.2c3.9-0.5,6.3-2.4,6.9-6.4c0.4-2.6,0.1-5.3-0.2-8
	c-0.4-2.4-2.2-3.9-4.4-4.5c-3.5-0.9-7.1-1.2-10.8-0.6V325.5z M90.1,348.8c3.2-0.2,6-0.2,8.7-0.6c6.3-1,8.6-4,8.4-10.3
	c0-0.8-0.2-1.6-0.3-2.4c-0.5-3.4-2.4-5.5-5.6-6.5c-3.6-1.2-7.3-0.9-11.2-0.7V348.8z M78.6,350.4c-0.5-1.3,0-1.8,1.2-1.9
	c3-0.2,3.8-1.4,3.8-4.8c0-11.2,0-22.3,0-33.5c0-3.6-0.2-3.7-3.9-4.7c-0.6-0.2-1-0.8-1.6-1.1c0.1-0.2,0.2-0.4,0.3-0.7
	c0.8-0.1,1.5-0.3,2.3-0.3c5.8,0,11.5-0.1,17.3,0.1c2.5,0.1,5.1,0.6,7.5,1.4c4,1.4,6.1,4.5,6.5,8.8c0.3,4.5-0.7,8.4-4.8,10.9
	c-1.2,0.7-2.4,1.3-3.9,2.1c1.8,0.8,3.3,1.4,4.7,2.1c4.4,2.1,6.3,5.7,6,10.6c-0.3,4.8-2.5,8.3-7.1,10c-1.8,0.7-3.9,1.2-5.8,1.2
	c-7.2,0.2-14.3,0.1-21.5,0.1C79.2,350.7,78.9,350.5,78.6,350.4"/>
<path class="st0" d="M436.1,325.6c3.8,0.8,7.1,0.4,10.4-0.6c2.7-0.9,4.5-2.8,5.2-5.6c0.7-2.7,0.8-5.4-0.2-7.9
	c-0.6-1.3-1.4-2.9-2.6-3.6c-3.9-2.4-8.3-2.6-12.8-1.9V325.6z M436,328.2c0,5.8-0.1,11.1,0,16.4c0.1,2.9,0.5,3.3,3.4,3.9
	c1.2,0.2,2.2,0.3,1.5,2h-16.3c-0.5-1.4,0-1.7,1.2-2c3.5-0.8,3.8-1.1,3.8-4.7c0-11,0-22.1,0-33.1c0-3.6-0.2-3.8-3.7-4.7
	c-1.1-0.3-1.1-0.3-1.4-2.5c3.8,0,7.5-0.1,11.2,0c4.4,0.1,8.9,0.1,13.3,0.8c6.7,1,9.7,5.1,9.5,11.8c-0.1,4.5-2.2,7.6-6.4,9.2
	c-1.7,0.7-3.6,1.1-5.4,1.7c0.1,0.1,0.3,0.3,0.4,0.4c7.3,2.1,9.3,4.4,10.2,12c0.2,1.6,0.3,3.3,0.4,4.9c0.1,1.6,0.4,3.2,2.2,3.6
	c1.9,0.5,3.2-0.3,3.8-2.2c0.1-0.4,0.5-0.8,1-1.5c0.3,0.9,0.7,1.5,0.6,2.1c-0.8,3.6-3.4,5.3-7.6,5.2c-3.7-0.1-5.9-2-6.3-5.7
	c-0.2-1.9-0.1-3.7-0.1-5.6c0.2-9.1-2.4-11.8-11.6-11.9C438.7,328.2,437.5,328.2,436,328.2"/>
<path class="st0" d="M184.3,325.7c3.7,0.6,6.9,0.3,10.1-0.7c3.2-1,5.1-3.3,5.6-6.6c0.5-3.8,0.6-7.6-2.7-10.4
	c-0.4-0.4-0.9-0.7-1.5-0.9c-3.7-1.4-7.4-1.9-11.5-1V325.7z M172.8,303.2c7.9,0.3,15.7,0.6,23.6,1c0.9,0,1.8,0.4,2.7,0.6
	c5,1.6,7.3,4.7,7.5,10.2c0.2,5.4-2,8.7-7,10.5c-1.5,0.6-3.1,0.9-5.1,1.5c0.9,0.3,1.4,0.4,2,0.6c6.1,2,8.5,5.1,9,11.6
	c0.1,1.8,0.1,3.5,0.3,5.3c0.2,1.5,0.4,3.1,2.4,3.5c2,0.4,3.1-0.7,3.7-2.4c0.1-0.4,0.5-0.7,1-1.3c0.3,0.7,0.7,1.1,0.6,1.5
	c-0.2,3.1-2.6,5.4-5.7,5.7c-4.3,0.4-7-0.9-7.9-4.2c-0.5-1.8-0.5-3.7-0.6-5.5c-0.1-2.2,0.1-4.5-0.2-6.7c-0.5-3.9-2.2-5.6-6.1-6.2
	c-2.8-0.4-5.7-0.5-8.8-0.8c0,6.1,0,11.7,0,17.3c0,2,1.3,2.8,3.1,3.2c1.4,0.3,1.4,0.3,2,1.9h-17.4c0.8-0.9,1.2-1.8,1.7-1.8
	c4.1-0.3,4.1-2,4.1-5.2c0.1-8,0.1-16,0.1-23.9c0-3.3,0-6.6-0.2-9.8c-0.2-2.9-0.3-3-3.2-3.6C173,305.8,172,305.5,172.8,303.2"/>
<path class="st0" d="M280,348.7c3.6-0.2,7-0.3,10.3-0.6c7.3-0.6,11.4-5,13.1-11.8c1.5-5.5,1.6-11.2,0.5-16.8
	c-1.2-6.4-4.4-11.5-11.2-13.1c-4.1-1-8.3-1.3-12.8-0.7V348.7z M267.7,350.4c0.7-0.9,1.1-1.6,1.6-1.8c4-1.3,4.1-1.3,4.2-5.5
	c0.1-7.3,0-14.5,0-21.8c0-3.8,0.1-7.5-0.1-11.3c-0.1-3.4-0.3-3.6-3.8-4.3c-1.2-0.3-1.6-0.7-1.2-2.2c3.6,0,7.3-0.1,11.1,0
	c4.2,0.1,8.5,0,12.6,0.6c15.7,2.3,21.4,13.9,19.3,27.7c-1.8,11.9-9.6,18.6-21.7,18.8c-6.4,0.1-12.9,0.1-19.3,0.1
	C269.8,350.7,269.1,350.6,267.7,350.4"/>
<path class="st0" d="M506.8,326.9c-0.5-5.9-1.3-11.5-4.7-16.4c-2.4-3.4-5.6-5.4-10-5.7c-6.1-0.3-10.3,2.4-13.2,7.6
	c-2.9,5.3-3.5,11.1-3.1,17c0.3,5.1,1.3,10,4.4,14.2c5.2,7.2,15.2,7.7,20.9,0.9c1.8-2.1,3.1-4.7,3.9-7.3
	C505.9,333.9,506.2,330.3,506.8,326.9 M490.5,351.4c-10.7,0.4-19.8-7.5-21.5-18.8c-0.8-5.6-0.5-11,1.6-16.3
	c3.9-9.7,12.8-14.6,22.3-14c10.8,0.8,18,7.5,20,18c0.9,5,0.8,10-0.6,15C509.4,345.4,500.1,352,490.5,351.4"/>
<path class="st0" d="M158.6,327.4c-0.1-2-0.1-4-0.4-6c-0.5-4.1-1.8-8-4.3-11.4c-5.3-7.3-16.6-6.9-21.5,0.2c-1.3,1.9-2.4,4.1-3.1,6.3
	c-2.2,7-2.2,14.2,0.1,21.1c0.8,2.5,2.2,5,3.8,7c3.3,4,7.8,5.4,13,4.2c4.3-1,7.2-3.7,9.2-7.5C157.9,337,158.5,332.2,158.6,327.4
	 M165.7,327c-0.1,6.2-1.6,11.9-5.6,16.7c-6.2,7.4-15.2,9.4-24.3,6.9c-8.1-2.3-13.9-10-14.8-19.2c-0.5-5.2-0.1-10.3,1.9-15.2
	c3.8-9.4,13.3-14.7,23.1-13.6c13,1.4,18.2,11.2,19.2,19.2C165.5,323.4,165.6,325.2,165.7,327"/>
<path class="st0" d="M254.5,327.2c-0.1-2-0.1-4-0.4-6c-0.6-4.2-1.9-8.2-4.6-11.7c-5.2-6.7-16-6.4-20.8,0.1c-1.5,2.1-2.7,4.4-3.5,6.8
	c-1.9,5.7-1.8,11.5-0.8,17.4c0.6,3.8,1.9,7.3,4.3,10.2c3.5,4.3,8,5.8,13.5,4.6c4.8-1.1,7.7-4.3,9.7-8.5
	C253.9,336.2,254.4,331.8,254.5,327.2 M261.7,326.5c-0.1,6.3-1.6,12.1-5.7,17.1c-6.2,7.5-15.6,9.7-24.6,6.8
	c-9.1-3-13.5-10.1-14.5-19.3c-0.5-4.7-0.2-9.4,1.5-13.9c3.4-9.2,11.6-15.2,22.1-14.8c10.6,0.4,17.8,6.6,20.2,16.9
	C261.2,321.6,261.3,324.1,261.7,326.5"/>
<path class="st0" d="M399.7,332.6h19.5c-0.5,0.9-0.8,1.8-1.2,1.9c-2.5,0.6-2.8,2.6-2.9,4.6c-0.1,2.9,0,5.8,0,9.4c-2.3-1.7-4-1-5.8,0
	c-4.9,2.8-10.2,3.5-15.7,2.7c-8-1.1-13.5-5.8-16.1-13.4c-2.4-7-2.3-14.1,0.2-21.1c4.7-13.1,17.5-17.1,28.9-12.8
	c1.6,0.6,3.2,1.4,4.8,2.2c0.6-1,1.1-1.9,1.8-2.9c1.1,2,1.3,10.4,0.5,15.3c-0.6-0.5-1.3-0.8-1.4-1.3c-0.4-1.2-0.4-2.5-0.8-3.8
	c-1.7-5.2-5.8-8.3-11.2-8.6c-8-0.5-13,2.8-15.4,10.5c-2.3,7.6-2.4,15.3-0.1,22.9c2.6,8.7,9.9,12.6,18.7,10.6
	c3.1-0.7,4.9-2.5,5.3-5.7c0.1-0.6,0.2-1.2,0.2-1.7c0.2-5.1-0.5-5.9-5.5-6.6c-0.9-0.1-1.9,0-2.8-0.4
	C400.3,334.2,400.1,333.4,399.7,332.6"/>
<path class="st0" d="M584.1,327.4c2.7,0,5.3,0.3,7.8-0.1c3.9-0.6,6.7-2.6,7.6-6.7c1-4.5,1-8.9-2.6-12.5c-0.4-0.4-0.9-0.8-1.5-1
	c-3.6-1.4-7.4-2-11.4-1.1V327.4z M572.7,303.3c7.7,0.2,15.3,0.1,22.9,0.7c7.6,0.5,12.5,6.6,10.7,16.1c-1,5.2-4.8,8.6-10.5,9.4
	c-3.7,0.5-7.5,0.6-11.5,0.8c-0.1,0.4-0.3,1.2-0.3,1.9c0,3.9-0.1,7.8,0,11.6c0.1,3.6,0.6,4.2,4.2,4.7c1.1,0.2,2.6-0.1,1.9,2h-17.4
	c-0.6-1.2-0.3-1.7,1-2c3.7-0.9,3.9-1.1,3.9-4.9c0-10.9,0-21.8,0-32.8c0-3.7-0.1-3.7-3.9-4.8C572.5,305.7,572.2,305,572.7,303.3"/>
<path class="st0" d="M566.3,303.7c-0.9,1-1.2,1.7-1.8,1.9c-3.7,1.3-3.9,1.3-4,5.1c-0.1,5.2-0.1,10.3-0.1,15.5
	c-0.1,3.5-0.1,7-0.3,10.6c-0.5,8.5-4.2,12.9-12.7,14.4c-4.2,0.7-8.4,0.7-12.6-0.4c-5.7-1.5-9.2-5.4-9.4-11.3
	c-0.4-8.2-0.3-16.4-0.4-24.6c0-1.6,0-3.3-0.1-4.9c-0.2-3.2-0.3-3.4-3.5-4.2c-1.1-0.2-1.8-0.4-1.4-2h16.5c0.4,1.3-0.1,1.7-1.3,2
	c-3.4,0.8-3.7,1-3.7,4.4c-0.1,9.3-0.1,18.5,0.2,27.8c0.2,6.2,3.9,9.7,10.1,10c2.8,0.1,5.6-0.1,8.4-0.5c3.3-0.6,5.4-2.8,6.2-6
	c0.7-2.8,1.2-5.8,1.3-8.7c0.2-6.8,0.1-13.6,0.1-20.4c0-0.7-0.1-1.4-0.1-2.1c-0.2-2.5-1.1-4.3-3.9-4.5c-1-0.1-0.9-0.3-1.2-1.9H566.3z
	"/>
<path class="st0" d="M332.2,314c-0.2-0.1-0.5-0.1-0.7-0.2c-2,5.6-4,11.2-6.1,17h12.5C335.9,325,334.1,319.5,332.2,314 M338.4,350.5
	c-0.6-1.9,0.7-1.8,1.7-2.1c2.3-0.8,2.9-1.5,2.3-3.9c-1-3.8-2.4-7.6-3.6-11.3h-14.2c-1.2,3.5-2.5,7.1-3.6,10.8
	c-0.7,2.7-0.3,3.1,2.3,4.6c0.5,0.3,0.8,1,1.5,2h-12.4c0.4-0.8,0.6-1.8,0.9-1.8c2.7-0.4,3.5-2.3,4.3-4.5c4.6-12.8,9.3-25.5,14.1-38.3
	c0.4-1.1,0.4-2.6,2-3.2c1.6,0.6,1.5,2.2,2,3.5c4.5,12.2,8.9,24.4,13.2,36.7c1,2.7,1.7,5.5,5.2,5.9c0.2,0,0.4,0.9,0.6,1.7H338.4z"/>
</svg>
