<?xml version="1.0" encoding="utf-8"?>
<!-- Generator: Adobe Illustrator 24.1.2, SVG Export Plug-In . SVG Version: 6.00 Build 0)  -->
<svg version="1.1" id="Слой_1" xmlns="http://www.w3.org/2000/svg" xmlns:xlink="http://www.w3.org/1999/xlink" x="0px" y="0px"
	 viewBox="0 0 100 100" style="enable-background:new 0 0 100 100;" xml:space="preserve">
<style type="text/css">
	.st0{fill:#FFFFFF;}
</style>
<g>
	<g>
		<g>
			<path class="st0" d="M50.1,99.7c-27.5,0-49.9-22.4-49.9-49.9C0.3,22.3,22.6,0,50.1,0C77.6,0,100,22.3,100,49.8
				C100,77.3,77.6,99.7,50.1,99.7z M50.1,3.4C24.5,3.4,3.7,24.2,3.7,49.8c0,25.6,20.8,46.4,46.4,46.4c25.6,0,46.4-20.8,46.4-46.4
				C96.6,24.2,75.7,3.4,50.1,3.4z"/>
		</g>
		<g>
			<path class="st0" d="M40.1,60.4c1.6,1.6,4.7,4.5,6.8,5c2.1,0.5,3.7-0.7,5.4-2.1c0.9-0.8,1.3-1.6,3.4-2c2.2-0.4,8.4,3.7,9.9,5.5
				c4.5,5.4,0.5,11.4-5.7,11.9c-7.6,0.6-17.7-6.3-24.8-13.4c-7.1-7.1-14-17.2-13.4-24.8c0.5-6.1,6.5-10.2,11.9-5.7
				c1.8,1.5,5.9,7.7,5.5,9.9c-0.4,2.1-1.3,2.5-2,3.4c-1.4,1.7-2.6,3.3-2.1,5.4C35.6,55.7,38.5,58.9,40.1,60.4z"/>
			<g>
				<path class="st0" d="M60.6,53c-0.7-0.1-1.4-0.7-1.5-1.5c-1-5.5-4.9-9.5-10.5-10.7c-0.8-0.2-1.4-0.9-1.4-1.7
					c0-0.8,0.6-1.2,1.4-1.1c6.9,1.6,11.9,6.8,13.2,13.6c0.1,0.8-0.3,1.4-1.1,1.4C60.7,53,60.7,53,60.6,53z"/>
			</g>
			<g>
				<path class="st0" d="M69.1,54.5c-0.7-0.1-1.4-0.8-1.5-1.6c-1.4-11.2-8.1-18.5-19.5-21c-0.8-0.2-1.4-0.9-1.4-1.7
					c0-0.8,0.6-1.2,1.4-1.1C60.9,32,68.8,40.5,70.4,53.2C70.5,54,69.9,54.6,69.1,54.5C69.1,54.5,69.1,54.5,69.1,54.5z"/>
			</g>
			<g>
				<path class="st0" d="M77.3,55.7c-0.7-0.1-1.4-0.8-1.5-1.5c-3.1-18.3-11.5-27.5-28.3-30.5c-0.8-0.1-1.4-0.9-1.5-1.7
					c0-0.8,0.5-1.3,1.3-1.1c18.2,3.4,27.9,13.7,31.2,33.5c0.1,0.8-0.4,1.4-1.1,1.3C77.3,55.8,77.3,55.8,77.3,55.7z"/>
			</g>
		</g>
	</g>
	<g>
		<g>
			<path class="st0" d="M50.1,99.7c-27.5,0-49.9-22.4-49.9-49.9C0.3,22.3,22.6,0,50.1,0C77.6,0,100,22.3,100,49.8
				C100,77.3,77.6,99.7,50.1,99.7z M50.1,3.4C24.5,3.4,3.7,24.2,3.7,49.8c0,25.6,20.8,46.4,46.4,46.4c25.6,0,46.4-20.8,46.4-46.4
				C96.6,24.2,75.7,3.4,50.1,3.4z"/>
		</g>
		<g>
			<path class="st0" d="M40.1,60.4c1.6,1.6,4.7,4.5,6.8,5c2.1,0.5,3.7-0.7,5.4-2.1c0.9-0.8,1.3-1.6,3.4-2c2.2-0.4,8.4,3.7,9.9,5.5
				c4.5,5.4,0.5,11.4-5.7,11.9c-7.6,0.6-17.7-6.3-24.8-13.4c-7.1-7.1-14-17.2-13.4-24.8c0.5-6.1,6.5-10.2,11.9-5.7
				c1.8,1.5,5.9,7.7,5.5,9.9c-0.4,2.1-1.3,2.5-2,3.4c-1.4,1.7-2.6,3.3-2.1,5.4C35.6,55.7,38.5,58.9,40.1,60.4z"/>
			<g>
				<path class="st0" d="M60.6,53c-0.7-0.1-1.4-0.7-1.5-1.5c-1-5.5-4.9-9.5-10.5-10.7c-0.8-0.2-1.4-0.9-1.4-1.7
					c0-0.8,0.6-1.2,1.4-1.1c6.9,1.6,11.9,6.8,13.2,13.6c0.1,0.8-0.3,1.4-1.1,1.4C60.7,53,60.7,53,60.6,53z"/>
			</g>
			<g>
				<path class="st0" d="M69.1,54.5c-0.7-0.1-1.4-0.8-1.5-1.6c-1.4-11.2-8.1-18.5-19.5-21c-0.8-0.2-1.4-0.9-1.4-1.7
					c0-0.8,0.6-1.2,1.4-1.1C60.9,32,68.8,40.5,70.4,53.2C70.5,54,69.9,54.6,69.1,54.5C69.1,54.5,69.1,54.5,69.1,54.5z"/>
			</g>
			<g>
				<path class="st0" d="M77.3,55.7c-0.7-0.1-1.4-0.8-1.5-1.5c-3.1-18.3-11.5-27.5-28.3-30.5c-0.8-0.1-1.4-0.9-1.5-1.7
					c0-0.8,0.5-1.3,1.3-1.1c18.2,3.4,27.9,13.7,31.2,33.5c0.1,0.8-0.4,1.4-1.1,1.3C77.3,55.8,77.3,55.8,77.3,55.7z"/>
			</g>
		</g>
	</g>
</g>
</svg>
