<?xml version="1.0" encoding="utf-8"?>
<!-- Generator: Adobe Illustrator 24.1.2, SVG Export Plug-In . SVG Version: 6.00 Build 0)  -->
<svg version="1.1" id="Слой_1" xmlns="http://www.w3.org/2000/svg" xmlns:xlink="http://www.w3.org/1999/xlink" x="0px" y="0px"
	 viewBox="0 0 100 100" style="enable-background:new 0 0 100 100;" xml:space="preserve">
<style type="text/css">
	.st0{fill:#FFFFFF;}
</style>
<g>
	<g>
		<g>
			<path class="st0" d="M50,100C22.5,100,0,77.5,0,50C0,22.4,22.5,0,50,0c27.6,0,50,22.4,50,50C100,77.5,77.6,100,50,100z M50,3.4
				C24.4,3.4,3.5,24.3,3.5,50c0,25.7,20.9,46.5,46.5,46.5c25.7,0,46.5-20.9,46.5-46.5C96.6,24.3,75.7,3.4,50,3.4z"/>
		</g>
		<g>
			<ellipse transform="matrix(0.9239 -0.3827 0.3827 0.9239 -15.3177 22.9471)" class="st0" cx="50" cy="50" rx="10.5" ry="10.5"/>
			<path class="st0" d="M50,19.4c-9.3,0-17.7,4.2-23.3,10.8L35.9,46c1.8-6.2,7.4-10.7,14.2-10.7h26.8C71.6,25.8,61.6,19.4,50,19.4z"
				/>
			<path class="st0" d="M78.8,39.7H60.6c2.6,2.7,4.2,6.3,4.2,10.3c0,2.7-0.7,5.2-2,7.4l0,0L49.4,80.5c0.2,0,0.4,0,0.6,0
				c16.9,0,30.6-13.7,30.6-30.6C80.6,46.4,80,42.9,78.8,39.7z"/>
			<path class="st0" d="M19.4,50c0,15,10.8,27.5,25.1,30.1l9.1-15.8c-1.2,0.3-2.4,0.5-3.6,0.5c-5.5,0-10.2-3-12.7-7.4l0,0L23.9,34.1
				C21.1,38.8,19.4,44.2,19.4,50z"/>
		</g>
	</g>
	<g>
		<g>
			<path class="st0" d="M50,100C22.5,100,0,77.5,0,50C0,22.4,22.5,0,50,0c27.6,0,50,22.4,50,50C100,77.5,77.6,100,50,100z M50,3.4
				C24.4,3.4,3.5,24.3,3.5,50c0,25.7,20.9,46.5,46.5,46.5c25.7,0,46.5-20.9,46.5-46.5C96.6,24.3,75.7,3.4,50,3.4z"/>
		</g>
		<g>
			<ellipse transform="matrix(0.9239 -0.3827 0.3827 0.9239 -15.3177 22.9471)" class="st0" cx="50" cy="50" rx="10.5" ry="10.5"/>
			<path class="st0" d="M50,19.4c-9.3,0-17.7,4.2-23.3,10.8L35.9,46c1.8-6.2,7.4-10.7,14.2-10.7h26.8C71.6,25.8,61.6,19.4,50,19.4z"
				/>
			<path class="st0" d="M78.8,39.7H60.6c2.6,2.7,4.2,6.3,4.2,10.3c0,2.7-0.7,5.2-2,7.4l0,0L49.4,80.5c0.2,0,0.4,0,0.6,0
				c16.9,0,30.6-13.7,30.6-30.6C80.6,46.4,80,42.9,78.8,39.7z"/>
			<path class="st0" d="M19.4,50c0,15,10.8,27.5,25.1,30.1l9.1-15.8c-1.2,0.3-2.4,0.5-3.6,0.5c-5.5,0-10.2-3-12.7-7.4l0,0L23.9,34.1
				C21.1,38.8,19.4,44.2,19.4,50z"/>
		</g>
	</g>
</g>
</svg>
