<?xml version="1.0" encoding="utf-8"?>
<!-- Generator: Adobe Illustrator 24.1.2, SVG Export Plug-In . SVG Version: 6.00 Build 0)  -->
<svg version="1.1" id="Слой_1" xmlns="http://www.w3.org/2000/svg" xmlns:xlink="http://www.w3.org/1999/xlink" x="0px" y="0px"
	 viewBox="0 0 100 100" style="enable-background:new 0 0 100 100;" xml:space="preserve">
<style type="text/css">
	.st0{fill:#FFFFFF;}
</style>
<g>
	<g>
		<g>
			<path class="st0" d="M50.1,100c-27.6,0-50-22.4-50-50s22.4-50,50-50s50,22.4,50,50S77.6,100,50.1,100z M50.1,3.4
				C24.4,3.4,3.5,24.3,3.5,50s20.9,46.6,46.6,46.6S96.6,75.7,96.6,50S75.7,3.4,50.1,3.4z"/>
		</g>
	</g>
	<g>
		<g>
			<path class="st0" d="M50.1,100c-27.6,0-50-22.4-50-50s22.4-50,50-50s50,22.4,50,50S77.6,100,50.1,100z M50.1,3.4
				C24.4,3.4,3.5,24.3,3.5,50s20.9,46.6,46.6,46.6S96.6,75.7,96.6,50S75.7,3.4,50.1,3.4z"/>
		</g>
	</g>
</g>
<g>
	<path class="st0" d="M75.3,68.2l-7.5-9.8c1.9-0.7,3.4-1.8,4.5-3.2c1.5-2,2.3-5,2.3-9v-2.8c0-2.2-0.2-4.1-0.7-5.6
		c-0.5-1.6-1.3-2.9-2.5-4.2c0,0-0.1-0.1-0.1-0.1C70,32.4,68.6,31.6,67,31c0,0,0,0-0.1,0c-1.6-0.5-3.5-0.7-5.7-0.7c0,0,0,0,0,0H26.8
		c-1.1,0-1.9,0.9-1.9,1.9v37.1c0,1.1,0.9,1.9,1.9,1.9h9.6c1.1,0,1.9-0.9,1.9-1.9V59.2h15.4l7.8,11.3c0.4,0.5,0.9,0.8,1.6,0.8h10.7
		c0.7,0,1.4-0.4,1.7-1.1C75.9,69.5,75.8,68.8,75.3,68.2z M63,46.3c0,2-0.7,3.1-1.3,3.7c-0.7,0.7-1.8,1-3.5,1c0,0,2,0,2,0H39.4
		c-0.9,0-1.7-0.9-1.7-1.9v-7.7c0-1.1,0.8-1.9,1.7-1.9h18.8c1.6,0,2.8,0.3,3.5,1.1c0.6,0.5,1.3,1.6,1.3,3.6V46.3z"/>
</g>
<g>
	<path class="st0" d="M71.9,31.6c1.8,0,3.2-1.4,3.2-3.2c0-1.8-1.4-3.2-3.2-3.2c-1.8,0-3.2,1.4-3.2,3.2
		C68.7,30.2,70.1,31.6,71.9,31.6z"/>
</g>
</svg>
