<?xml version="1.0" encoding="utf-8"?>
<!-- Generator: Adobe Illustrator 24.1.2, SVG Export Plug-In . SVG Version: 6.00 Build 0)  -->
<svg version="1.1" id="Слой_1" xmlns="http://www.w3.org/2000/svg" xmlns:xlink="http://www.w3.org/1999/xlink" x="0px" y="0px"
	 viewBox="0 0 841.89 595.28" style="enable-background:new 0 0 841.89 595.28;" xml:space="preserve">
<style type="text/css">
	.st0{fill:#FFFFFF;}
</style>
<g>
	<path class="st0" d="M381,325.41h13.51v-4.5l-6.01-3H381V325.41L381,325.41z M384,319.41h3.75l3.75,1.82v2.68H384V319.41
		L384,319.41z M396.01,325.41h13.51v-1.5h-10.51v-1.5h10.51v-1.5h-10.51v-1.5h10.51v-1.5h-13.51V325.41L396.01,325.41z
		 M424.54,325.41v-4.5h-10.51v-1.5h10.51v-1.5h-13.51v4.5h10.51v1.5h-10.51v1.5H424.54L424.54,325.41z M426.04,317.9v7.51h3v-7.51
		H426.04L426.04,317.9z M444.05,320.91h-3v3h-7.51v-4.5h10.51v-1.5h-13.51v7.51h13.51V320.91L444.05,320.91z M448.56,325.41v-4.5
		l7.51,4.5h3v-7.51h-3v4.5l-7.51-4.5h-3v7.51H448.56L448.56,325.41z"/>
	<path class="st0" d="M381.21,271.28v43.25h77.85v-43.25H381.21L381.21,271.28z M441.77,279.93v25.95h-43.25v-25.95H441.77
		L441.77,279.93z"/>
</g>
</svg>
