<?xml version="1.0" encoding="utf-8"?>
<!-- Generator: Adobe Illustrator 24.1.2, SVG Export Plug-In . SVG Version: 6.00 Build 0)  -->
<svg version="1.1" id="Слой_1" xmlns="http://www.w3.org/2000/svg" xmlns:xlink="http://www.w3.org/1999/xlink" x="0px" y="0px"
	 viewBox="0 0 100 100" style="enable-background:new 0 0 100 100;" xml:space="preserve">
<style type="text/css">
	.st0{fill:#FFFFFF;}
</style>
<g>
	<g>
		<g>
			<path class="st0" d="M50,100c-27.6,0-50-22.4-50-50c0-27.6,22.4-50,50-50s50,22.4,50,50C100,77.6,77.6,100,50,100z M50,3.4
				C24.4,3.4,3.5,24.3,3.5,50c0,25.7,20.9,46.5,46.5,46.5S96.6,75.7,96.6,50C96.6,24.3,75.7,3.4,50,3.4z"/>
		</g>
		<path class="st0" d="M76.1,33.9c0,0-2.5,1.8-5.4,1.2c0,0,4-2.5,4.2-6.5c-1.5,4.2-6.6,3.8-6.6,3.8l0,0.1c-2.9-3.5-7.1-3.5-8.7-3.5
			c-2.2,0.1-10.8,1-9.9,14c0,0-15.5-0.3-23.3-12.4c-2.6,8.6,3.8,14.3,3.8,14.3c-3.1,0.7-5.3-1.2-5.3-1.2c1.6,8.9,9.6,10.7,9.6,10.7
			c-2.9,1.6-6.4,0.5-6.4,0.5c2.7,7,11.5,7.4,11.5,7.4c-5,6-15.8,6-15.8,6c9.4,5.5,47.1,7.3,47.1-26.3c0-1-0.1-2-0.2-2.9l0,0.1
			C70.9,39.2,74.9,37.7,76.1,33.9z"/>
	</g>
	<g>
		<g>
			<path class="st0" d="M50,100c-27.6,0-50-22.4-50-50c0-27.6,22.4-50,50-50s50,22.4,50,50C100,77.6,77.6,100,50,100z M50,3.4
				C24.4,3.4,3.5,24.3,3.5,50c0,25.7,20.9,46.5,46.5,46.5S96.6,75.7,96.6,50C96.6,24.3,75.7,3.4,50,3.4z"/>
		</g>
		<path class="st0" d="M76.1,33.9c0,0-2.5,1.8-5.4,1.2c0,0,4-2.5,4.2-6.5c-1.5,4.2-6.6,3.8-6.6,3.8l0,0.1c-2.9-3.5-7.1-3.5-8.7-3.5
			c-2.2,0.1-10.8,1-9.9,14c0,0-15.5-0.3-23.3-12.4c-2.6,8.6,3.8,14.3,3.8,14.3c-3.1,0.7-5.3-1.2-5.3-1.2c1.6,8.9,9.6,10.7,9.6,10.7
			c-2.9,1.6-6.4,0.5-6.4,0.5c2.7,7,11.5,7.4,11.5,7.4c-5,6-15.8,6-15.8,6c9.4,5.5,47.1,7.3,47.1-26.3c0-1-0.1-2-0.2-2.9l0,0.1
			C70.9,39.2,74.9,37.7,76.1,33.9z"/>
	</g>
</g>
</svg>
