<?xml version="1.0" encoding="utf-8"?>
<!-- Generator: Adobe Illustrator 24.1.2, SVG Export Plug-In . SVG Version: 6.00 Build 0)  -->
<svg version="1.1" id="Слой_1" xmlns="http://www.w3.org/2000/svg" xmlns:xlink="http://www.w3.org/1999/xlink" x="0px" y="0px"
	 viewBox="0 0 100 100" style="enable-background:new 0 0 100 100;" xml:space="preserve">
<style type="text/css">
	.st0{fill:#FFFFFF;}
</style>
<g>
	<g>
		<g>
			<path class="st0" d="M50,100C22.5,100,0,77.5,0,50C0,22.4,22.5,0,50,0c27.6,0,50,22.4,50,50C100,77.5,77.6,100,50,100z M50,3.4
				C24.4,3.4,3.5,24.3,3.5,50c0,25.7,20.9,46.5,46.5,46.5c25.7,0,46.5-20.9,46.5-46.5C96.6,24.3,75.7,3.4,50,3.4z"/>
		</g>
	</g>
	<g>
		<g>
			<path class="st0" d="M50,100C22.5,100,0,77.5,0,50C0,22.4,22.5,0,50,0c27.6,0,50,22.4,50,50C100,77.5,77.6,100,50,100z M50,3.4
				C24.4,3.4,3.5,24.3,3.5,50c0,25.7,20.9,46.5,46.5,46.5c25.7,0,46.5-20.9,46.5-46.5C96.6,24.3,75.7,3.4,50,3.4z"/>
		</g>
	</g>
</g>
<g>
	<path class="st0" d="M67.2,28.1c-7.4,3.1-39.1,16.2-47.9,19.8c-5.9,2.3-2.4,4.4-2.4,4.4s5,1.7,9.3,3c4.3,1.3,6.6-0.1,6.6-0.1
		L53,41.5c7.2-4.9,5.5-0.9,3.7,0.9C53,46.1,46.9,52,41.7,56.8c-2.3,2-1.1,3.7-0.1,4.6c3.7,3.2,13.9,9.6,14.5,10c3,2.1,9,5.2,9.9-1.3
		l3.6-22.5c1.1-7.6,2.3-14.6,2.4-16.6C72.4,26.1,67.2,28.1,67.2,28.1z"/>
</g>
</svg>
